<svg width="688" height="609" viewBox="0 0 688 609" fill="none" xmlns="http://www.w3.org/2000/svg">
<g clip-path="url(#clip0_131_1678)">
<path d="M629.423 468.78C684.683 418.212 704.315 349.104 673.274 314.423C642.233 279.742 572.273 292.621 517.014 343.189C461.754 393.757 442.122 462.864 473.163 497.545C504.204 532.226 574.164 519.348 629.423 468.78Z" fill="white"/>
<path d="M468.646 607.211C461.194 591.646 458.555 574.108 459.852 556.936C461.26 539.873 466.238 523.308 474.457 508.337C482.437 493.889 492.559 480.763 504.472 469.416C516.987 457.294 531.099 447.003 545.948 438.009C561.627 428.512 578.102 420.441 594.769 412.889C596.846 411.948 598.927 411.015 601.01 410.088C602.377 409.479 601.195 407.452 599.836 408.057C582.843 415.622 565.993 423.595 549.88 432.95C534.486 441.887 519.759 452.111 506.601 464.193C494.203 475.4 483.522 488.409 474.907 502.792C466.087 517.592 460.368 534.067 458.104 551.194C455.931 568.442 457.611 586.379 464.078 602.563C464.867 604.537 465.72 606.482 466.637 608.399C467.289 609.761 469.296 608.57 468.646 607.211Z" fill="#E6E6E6"/>
<path d="M532.825 444.008C532.056 431.181 533.01 418.307 535.663 405.739C538.307 393.165 542.598 381.003 548.425 369.576C551.704 363.162 555.463 357.009 559.667 351.172C560.55 349.947 558.532 348.772 557.658 349.985C550.104 360.506 543.989 372.011 539.479 384.188C534.96 396.366 532.06 409.097 530.856 422.047C530.176 429.347 530.056 436.689 530.498 444.008C530.589 445.512 532.916 445.523 532.825 444.008Z" fill="#E6E6E6"/>
<path d="M283.875 424.78C355.801 358.96 381.355 269.009 340.952 223.868C300.548 178.727 209.488 195.49 137.562 261.31C65.6364 327.129 40.0824 417.08 80.4857 462.221C120.889 507.362 211.95 490.599 283.875 424.78Z" fill="white"/>
<path d="M74.6058 604.962C64.9063 584.702 61.4715 561.874 63.1603 539.523C64.8383 517.314 71.6212 495.77 82.1705 476.267C92.3865 457.379 105.889 440.473 121.237 425.607C137.527 409.828 155.896 396.434 175.223 384.727C195.631 372.365 217.075 361.86 238.769 352.031C241.473 350.806 244.18 349.591 246.892 348.385C248.672 347.592 247.133 344.953 245.364 345.741C223.246 355.588 201.313 365.966 180.341 378.142C160.304 389.775 141.135 403.082 124.009 418.808C108.033 433.478 93.7952 450.259 82.7553 469.049C71.276 488.313 63.8322 509.756 60.8852 532.049C58.0569 554.5 60.2436 577.847 68.6611 598.912C69.6875 601.481 70.7975 604.012 71.9909 606.507C72.8399 608.281 75.4522 606.729 74.6058 604.962Z" fill="#E6E6E6"/>
<path d="M158.142 392.535C157.141 375.839 158.384 359.083 161.836 342.725C165.278 326.357 170.864 310.528 178.447 295.655C182.716 287.305 187.608 279.297 193.081 271.7C194.23 270.105 191.603 268.575 190.466 270.154C180.633 283.849 172.674 298.824 166.804 314.673C160.921 330.524 157.146 347.095 155.579 363.951C154.695 373.452 154.539 383.009 155.114 392.535C155.232 394.493 158.261 394.507 158.142 392.535Z" fill="#E6E6E6"/>
<path d="M423.973 22.2305L390.174 78.575L423.9 98.7562L423.973 22.2305Z" fill="#8C8C8C"/>
<path d="M390.288 78.6897L423.9 63.1992L423.859 98.7794L390.288 78.6897Z" fill="#383838"/>
<path d="M423.827 22.2305L457.627 78.575L423.901 98.7562L423.827 22.2305Z" fill="#333333"/>
<path d="M457.512 78.6897L423.9 63.1992L423.941 98.7794L457.512 78.6897Z" fill="#141414"/>
<path d="M390.288 85.1562L423.859 132.957V105.246L390.288 85.1562Z" fill="#8C8C8C"/>
<path d="M457.431 85.1562L423.859 132.957V105.246L457.431 85.1562Z" fill="#333333"/>
<path d="M424.171 173.57C406.014 173.57 387.925 160.951 373.235 138.036C360.319 117.888 352.295 92.8434 352.295 72.6773C352.295 63.1331 354.154 53.6825 357.766 44.8649C361.378 36.0473 366.673 28.0354 373.347 21.2867C380.021 14.538 387.945 9.1846 396.665 5.53223C405.386 1.87985 414.732 0 424.171 0C433.61 0 442.957 1.87985 451.677 5.53223C460.398 9.1846 468.321 14.538 474.996 21.2867C481.67 28.0354 486.964 36.0473 490.577 44.8649C494.189 53.6825 496.048 63.1331 496.048 72.6773C496.048 92.8434 488.024 117.888 475.107 138.036C460.418 160.951 442.328 173.57 424.171 173.57ZM424.171 1.71005C405.564 1.73129 387.724 9.21499 374.566 22.5193C361.408 35.8237 354.007 53.8621 353.986 72.6773C353.986 111.844 385.429 171.86 424.171 171.86C462.914 171.86 494.357 111.844 494.357 72.6773C494.336 53.8621 486.934 35.8237 473.777 22.5193C460.619 9.21499 442.779 1.73129 424.171 1.71005Z" fill="#3F3D56"/>
<path d="M430.947 188.962H417.395C416.762 188.962 416.137 188.818 415.566 188.541C414.995 188.264 414.493 187.861 414.097 187.362C413.701 186.863 413.421 186.28 413.277 185.656C413.134 185.033 413.13 184.384 413.268 183.759L415.882 171.861H432.46L435.075 183.759C435.212 184.384 435.209 185.033 435.065 185.656C434.922 186.28 434.641 186.863 434.245 187.362C433.849 187.861 433.347 188.264 432.776 188.541C432.205 188.818 431.58 188.962 430.947 188.962ZM417.239 173.571L414.918 184.13C414.836 184.505 414.838 184.894 414.924 185.268C415.01 185.642 415.178 185.992 415.416 186.292C415.654 186.591 415.955 186.833 416.297 186.999C416.64 187.166 417.015 187.252 417.395 187.252H430.947C431.327 187.252 431.702 187.166 432.045 186.999C432.387 186.833 432.688 186.591 432.926 186.292C433.164 185.992 433.332 185.642 433.418 185.268C433.504 184.894 433.506 184.505 433.424 184.13L431.103 173.571H417.239Z" fill="#3F3D56"/>
<path d="M390.719 21.2575C379.561 28.1088 371.536 39.1464 368.399 51.9598C367.532 55.5235 367.071 59.176 367.025 62.8457C367.037 63.1782 367.175 63.4932 367.412 63.7243C367.649 63.9554 367.965 64.0846 368.294 64.0846C368.623 64.0846 368.939 63.9554 369.176 63.7243C369.412 63.4932 369.551 63.1782 369.562 62.8457C369.82 50.3778 374.931 38.5158 383.786 29.8353C386.27 27.3986 389.026 25.2632 392 23.4724C392.278 23.2947 392.477 23.0147 392.555 22.6913C392.633 22.368 392.584 22.0267 392.418 21.7393C392.252 21.452 391.982 21.2411 391.665 21.1512C391.348 21.0613 391.009 21.0994 390.719 21.2575Z" fill="#3F3D56"/>
<path d="M412.423 175.181C427.748 174.388 445.186 173.965 457.129 185.395C462.111 190.162 465.254 196.551 465.064 203.574C464.858 211.217 461.014 218.376 456.251 224.117C445.997 236.477 430.96 244.205 416.538 250.434C401.211 257.054 385.243 262.224 370.517 270.213C357.587 277.227 345.534 286.694 337.723 299.449C333.88 305.631 331.332 312.544 330.234 319.761C329.227 326.995 329.589 334.358 331.302 341.455C334.742 356.002 343.211 368.859 354.496 378.412C365.917 388.08 379.751 394.518 394.084 398.364C411.1 402.93 428.829 403.964 446.361 404.067C464.467 404.174 482.589 403.278 500.684 404.304C505.085 404.554 509.478 404.922 513.857 405.435C515.476 405.625 515.463 403.058 513.857 402.87C495.781 400.752 477.563 401.238 459.406 401.445C441.605 401.649 423.653 401.586 406.073 398.408C390.915 395.668 376.053 390.533 363.198 381.823C350.884 373.48 340.848 361.782 335.769 347.587C330.809 333.721 330.861 318.376 337.503 305.083C344.154 291.774 355.756 281.706 368.362 274.358C382.911 265.88 398.93 260.573 414.385 254.108C428.983 248.002 443.914 240.721 455.127 229.176C460.32 223.83 464.768 217.324 466.672 210.003C467.601 206.579 467.826 202.999 467.331 199.483C466.836 195.968 465.632 192.593 463.794 189.567C460.119 183.877 454.871 179.404 448.703 176.704C441.26 173.312 433.001 172.335 424.908 172.252C420.743 172.21 416.581 172.401 412.423 172.616C410.798 172.7 410.789 175.266 412.423 175.181Z" fill="#3F3D56"/>
<path d="M334.412 591.458L324.245 593.505L311.598 554.826L326.604 551.805L334.412 591.458Z" fill="#FFB8B8"/>
<path d="M338.968 600.902L306.185 607.503L306.102 607.084C305.768 605.389 305.768 603.645 306.101 601.95C306.434 600.256 307.094 598.644 308.043 597.208C308.991 595.771 310.211 594.537 311.631 593.577C313.052 592.617 314.645 591.949 316.321 591.612L316.322 591.611L336.345 587.58L338.968 600.902Z" fill="#2F2E41"/>
<path d="M431.541 597.342L421.174 597.341L409.478 556.908L424.778 556.909L431.541 597.342Z" fill="#FFB8B8"/>
<path d="M434.185 607.502L400.758 607.501V607.074C400.758 605.346 401.094 603.635 401.748 602.039C402.402 600.443 403.36 598.993 404.569 597.771C405.777 596.549 407.211 595.58 408.79 594.919C410.368 594.258 412.06 593.918 413.769 593.918L434.186 593.919L434.185 607.502Z" fill="#2F2E41"/>
<path d="M406.794 481.861C407.621 480.81 408.211 479.59 408.522 478.284C408.833 476.978 408.856 475.62 408.591 474.304C408.327 472.988 407.78 471.747 406.989 470.668C406.199 469.589 405.184 468.698 404.016 468.059L383.305 387.062L365.291 395.262L391.313 472.3C390.381 474.355 390.226 476.685 390.879 478.847C391.532 481.009 392.946 482.855 394.854 484.033C396.762 485.211 399.032 485.641 401.232 485.241C403.433 484.84 405.412 483.638 406.794 481.861Z" fill="#FFB8B8"/>
<path d="M388.151 400.634L368.13 405.415C367.56 405.551 366.969 405.562 366.395 405.446C365.821 405.329 365.278 405.09 364.804 404.742C364.33 404.395 363.936 403.949 363.648 403.433C363.36 402.918 363.185 402.346 363.135 401.756L361.398 381.093C360.726 378.142 361.239 375.042 362.824 372.473C364.409 369.904 366.937 368.076 369.854 367.388C372.77 366.701 375.837 367.211 378.382 368.807C380.927 370.402 382.743 372.953 383.431 375.901L390.999 395.103C391.216 395.653 391.312 396.243 391.283 396.834C391.253 397.425 391.098 398.003 390.828 398.528C390.557 399.053 390.178 399.513 389.717 399.876C389.255 400.24 388.721 400.498 388.151 400.634Z" fill="#6C63FF"/>
<path d="M319.851 584.127C318.978 584.128 318.13 583.824 317.453 583.265C316.776 582.707 316.311 581.929 316.136 581.063L306.049 532.106C305.422 529.022 305.403 525.844 305.995 522.753C306.587 519.663 307.778 516.721 309.498 514.097L341.277 465.898V429.775L378.169 421.369L378.328 421.5C397.465 437.302 396.364 456.781 396.247 458.286L432.504 577.33C432.679 577.906 432.718 578.515 432.618 579.109C432.518 579.702 432.282 580.264 431.928 580.749C431.574 581.233 431.113 581.627 430.581 581.898C430.05 582.17 429.463 582.311 428.867 582.311H417.98C417.219 582.314 416.475 582.084 415.845 581.653C415.214 581.221 414.727 580.608 414.447 579.892L375.371 485.52L329.381 523.79C329.013 524.097 328.723 524.49 328.537 524.934C328.351 525.379 328.274 525.862 328.312 526.344L332.553 578.966C332.638 579.965 332.333 580.958 331.702 581.731C331.071 582.505 330.166 582.997 329.18 583.103L320.281 584.103C320.138 584.119 319.995 584.127 319.851 584.127Z" fill="#2F2E41"/>
<path d="M367.011 353.942C378.481 353.942 387.78 344.54 387.78 332.942C387.78 321.344 378.481 311.941 367.011 311.941C355.541 311.941 346.242 321.344 346.242 332.942C346.242 344.54 355.541 353.942 367.011 353.942Z" fill="#FFB8B8"/>
<path d="M343.242 433.781C342.486 433.782 341.746 433.555 341.117 433.13C340.488 432.705 339.998 432.1 339.709 431.393C332.752 414.122 332.867 392.307 335.918 379.347C337.218 373.86 340.382 369.008 344.857 365.637C349.332 362.266 354.835 360.591 360.407 360.902C363.723 361.081 366.966 361.957 369.927 363.476C372.889 364.994 375.505 367.12 377.607 369.719C379.71 372.318 381.253 375.331 382.138 378.567C383.023 381.804 383.23 385.191 382.747 388.513C381.12 399.657 380.46 415.354 380.251 421.585C380.22 422.416 379.924 423.216 379.406 423.863C378.889 424.51 378.178 424.971 377.381 425.177L344.171 433.664C343.867 433.742 343.555 433.782 343.242 433.781Z" fill="#6C63FF"/>
<path d="M343.624 308.411C343.191 308.591 342.745 308.737 342.29 308.846L327.665 348.587L334.145 356.536L323.558 367.993L310.734 355.048C309.698 354.002 309.026 352.645 308.818 351.18C308.61 349.714 308.877 348.221 309.58 346.922L332.492 304.607C331.594 303.027 331.193 301.208 331.343 299.391C331.492 297.575 332.185 295.848 333.329 294.439C334.473 293.031 336.014 292.008 337.747 291.506C339.48 291.005 341.323 291.049 343.031 291.633C344.738 292.216 346.23 293.312 347.307 294.773C348.383 296.235 348.995 297.993 349.059 299.815C349.124 301.636 348.638 303.434 347.667 304.97C346.696 306.506 345.286 307.706 343.624 308.411Z" fill="#FFB8B8"/>
<path d="M319.818 366.856L331.483 349.722C331.815 349.235 332.247 348.826 332.75 348.522C333.252 348.219 333.813 348.028 334.395 347.964C334.977 347.9 335.566 347.963 336.121 348.149C336.677 348.336 337.186 348.641 337.614 349.044L352.621 363.18C355.078 364.911 356.757 367.557 357.288 370.538C357.819 373.518 357.16 376.59 355.454 379.079C353.748 381.569 351.136 383.273 348.189 383.817C345.243 384.362 342.203 383.703 339.737 381.984L321.379 372.889C320.854 372.628 320.39 372.256 320.02 371.798C319.649 371.34 319.381 370.806 319.232 370.234C319.084 369.661 319.06 369.063 319.161 368.48C319.262 367.897 319.486 367.343 319.818 366.856Z" fill="#6C63FF"/>
<path d="M365.816 357.01C364.319 355.332 365.194 352.449 366.578 350.659C367.963 348.868 369.833 347.347 370.379 345.076C371.309 341.209 367.84 337.683 364.38 336.433C360.92 335.183 357.042 335.087 353.995 332.895C349.376 329.573 348.324 322.003 350.977 316.686C353.631 311.37 359.179 308.321 364.685 307.865C370.191 307.41 375.662 309.22 380.702 311.697C385.576 314.093 390.278 317.214 393.703 321.713C397.128 326.211 399.143 332.257 398.153 338.019C396.945 345.056 391.491 350.488 385.433 353.14C379.374 355.792 372.716 356.141 366.2 356.458L365.816 357.01Z" fill="#2F2E41"/>
<path d="M388.938 316.917C395.307 310.54 403.83 306.843 412.789 306.571C421.747 306.299 430.475 309.471 437.211 315.449C448.452 325.425 452.737 341.853 464.536 351.146C475.159 359.513 491.11 360.136 502.34 352.623C497.212 358.68 491.995 364.817 485.431 369.234C478.866 373.651 470.662 376.202 463.003 374.307C454.012 372.083 447.47 364.342 442.389 356.519C437.308 348.695 432.83 340.125 425.464 334.458C419.881 330.19 413.057 327.911 406.058 327.977C401.772 328.031 397.399 328.961 393.258 327.844C389.117 326.727 385.313 322.456 386.692 318.353L388.938 316.917Z" fill="#2F2E41"/>
<path d="M580.931 608.778H0.845606C0.621337 608.778 0.406253 608.688 0.247671 608.528C0.0890897 608.368 0 608.15 0 607.923C0 607.697 0.0890897 607.479 0.247671 607.319C0.406253 607.158 0.621337 607.068 0.845606 607.068H580.931C581.155 607.068 581.37 607.158 581.529 607.319C581.688 607.479 581.777 607.697 581.777 607.923C581.777 608.15 581.688 608.368 581.529 608.528C581.37 608.688 581.155 608.778 580.931 608.778Z" fill="#3F3D56"/>
</g>
<defs>
<clipPath id="clip0_131_1678">
<rect width="688" height="609" fill="white"/>
</clipPath>
</defs>
</svg>
