<svg width="22" height="20" viewBox="0 0 22 20" fill="none" xmlns="http://www.w3.org/2000/svg">
<path d="M19.9881 8.36824H19.2497V8.33366H10.9997V11.667H16.1802C15.4244 13.6074 13.3935 15.0003 10.9997 15.0003C7.9623 15.0003 5.49967 12.7616 5.49967 10.0003C5.49967 7.23908 7.9623 5.00033 10.9997 5.00033C12.4017 5.00033 13.6773 5.48116 14.6485 6.26658L17.2413 3.90949C15.6041 2.52241 13.4142 1.66699 10.9997 1.66699C5.93738 1.66699 1.83301 5.39824 1.83301 10.0003C1.83301 14.6024 5.93738 18.3337 10.9997 18.3337C16.062 18.3337 20.1663 14.6024 20.1663 10.0003C20.1663 9.44158 20.1031 8.89616 19.9881 8.36824Z" fill="#FFC107"/>
<path d="M2.89062 6.12158L5.90233 8.12949C6.71725 6.29533 8.69083 5.00033 11.0004 5.00033C12.4024 5.00033 13.678 5.48116 14.6492 6.26658L17.242 3.90949C15.6048 2.52241 13.4149 1.66699 11.0004 1.66699C7.47946 1.66699 4.42604 3.47408 2.89062 6.12158Z" fill="#FF3D00"/>
<path d="M11.0005 18.3336C13.3682 18.3336 15.5196 17.5099 17.1463 16.1703L14.3092 13.9878C13.3579 14.6454 12.1956 15.0011 11.0005 15.0003C8.61622 15.0003 6.59176 13.6182 5.82909 11.6895L2.83984 13.7832C4.35693 16.482 7.43784 18.3336 11.0005 18.3336Z" fill="#4CAF50"/>
</svg>
