<svg width="760" height="530" viewBox="0 0 760 530" fill="none" xmlns="http://www.w3.org/2000/svg">
<g opacity="0.7">
<path d="M638.239 117.04C638.317 114.653 637.911 112.273 637.042 110.039C636.174 107.804 634.861 105.758 633.179 104.018C631.496 102.277 629.477 100.877 627.237 99.8959C624.997 98.9152 622.581 98.3737 620.125 98.3024L568.548 96.8046L524.819 61.2973C524.639 59.4154 523.92 57.6203 522.743 56.1163C521.566 54.6123 519.978 53.4598 518.161 52.79C516.344 52.1202 514.369 51.96 512.463 52.3276C510.556 52.6952 508.794 53.5759 507.377 54.8694C505.96 56.1629 504.945 57.8173 504.447 59.6442C503.949 61.4712 503.989 63.3974 504.561 65.2036C505.134 67.0098 506.216 68.6234 507.685 69.8608C509.154 71.0983 510.951 71.9098 512.871 72.2031L558.708 122.986L615.852 134.263C618.516 134.789 621.266 134.743 623.909 134.129C626.553 133.515 629.027 132.347 631.158 130.707C633.29 129.067 635.028 126.994 636.251 124.634C637.474 122.274 638.152 119.682 638.239 117.04Z" fill="#9E616A"/>
<path d="M568.184 129.605L574.937 95.6089L575.157 95.4426C576.591 94.3565 578.328 93.7156 580.142 93.6036C581.956 93.4916 583.763 93.9137 585.327 94.8149L585.719 95.0385L631.257 96.2313L636.588 99.2818L639.665 98.5515C648.965 96.3442 658.363 94.8476 664.095 98.8057C667.334 101.041 669.17 104.763 669.71 110.178C670.098 114.067 669.581 117.99 668.199 121.658C666.817 125.326 664.604 128.645 661.725 131.37C658.846 134.094 655.373 136.154 651.565 137.396C647.756 138.639 643.709 139.034 639.722 138.55L637.432 138.248L629.932 135.302L618.331 136.641L611.39 133.868L568.184 129.605Z" fill="#3F3D56"/>
<path d="M391.837 505.451C391.99 512.51 390.988 519.549 388.869 526.302C388.795 526.548 388.706 526.793 388.617 527.038H344.932C345.556 524.048 346.548 521.141 347.885 518.38C351.52 510.877 357.456 504.455 363.317 498.077C371.389 489.29 379.269 480.574 380.515 469.146C383.715 473.889 386.269 479.016 388.113 484.398C385.855 485.211 383.783 486.446 382.014 488.034C381.524 488.481 381.005 489.131 381.257 489.751C381.494 490.271 382.147 490.444 382.726 490.559C384.121 490.819 385.516 491.079 386.911 491.324C388.009 491.541 389.122 491.743 390.235 491.945C391.213 496.386 391.749 500.909 391.837 505.451Z" fill="white"/>
<path d="M428.534 500.776C421.53 504.917 417.078 511.324 413.443 518.496C410.279 519.197 407.359 520.689 404.97 522.825C404.465 523.272 403.946 523.921 404.213 524.542C404.436 525.061 405.104 525.235 405.682 525.35C407.062 525.61 408.472 525.87 409.852 526.115C409.718 526.418 409.585 526.735 409.451 527.038H363.154C365.256 524.282 367.583 521.695 370.114 519.304C370.663 518.77 371.227 518.265 371.805 517.745C377.707 512.559 384.484 508.4 391.838 505.451C403.423 500.741 416.092 499.127 428.534 500.776Z" fill="white"/>
<path d="M370.87 527.038H329.648C329.423 523.828 329.443 520.606 329.708 517.399C330.6 507.472 333.696 497.851 338.781 489.199C343.866 480.547 350.82 473.071 359.163 467.284C357.026 474.687 358.124 482.046 360.35 489.434C360.038 489.535 359.727 489.622 359.445 489.737C357.187 490.55 355.115 491.786 353.346 493.373C352.856 493.821 352.337 494.47 352.589 495.091C352.812 495.61 353.479 495.783 354.058 495.899C355.453 496.158 356.848 496.418 358.228 496.664C359.341 496.88 360.454 497.082 361.567 497.298C362.086 497.385 362.605 497.486 363.125 497.587C363.199 497.76 363.243 497.919 363.318 498.078C365.929 505.076 368.778 512.132 370.114 519.304C370.444 521.104 370.672 522.92 370.796 524.744C370.841 525.509 370.87 526.274 370.87 527.038Z" fill="white"/>
<path d="M191.928 464.667C192.37 485.064 189.475 505.399 183.353 524.912C183.138 525.62 182.881 526.329 182.624 527.038H56.4062C58.2105 518.398 61.075 509.999 64.9382 502.023C75.4418 480.343 92.591 461.791 109.526 443.363C132.849 417.973 155.614 392.791 159.216 359.771C168.46 373.477 175.839 388.289 181.166 403.839C174.644 406.189 168.658 409.758 163.546 414.346C162.131 415.638 160.63 417.514 161.359 419.307C162.045 420.808 163.931 421.308 165.604 421.642C169.634 422.392 173.664 423.142 177.694 423.851C180.866 424.476 184.082 425.06 187.297 425.644C190.123 438.477 191.674 451.545 191.928 464.667Z" fill="white"/>
<path d="M297.952 451.161C277.715 463.126 264.854 481.637 254.35 502.358C245.209 504.384 236.771 508.695 229.869 514.865C228.412 516.158 226.911 518.034 227.683 519.826C228.326 521.327 230.255 521.828 231.927 522.161C235.914 522.912 239.987 523.662 243.975 524.371C243.589 525.247 243.203 526.164 242.817 527.039H109.054C115.126 519.076 121.85 511.602 129.161 504.693C130.747 503.15 132.377 501.691 134.049 500.19C151.1 485.204 170.679 473.188 191.927 464.669C225.4 451.061 262.004 446.397 297.952 451.161Z" fill="white"/>
<path d="M131.348 527.038H12.2471C11.5967 517.764 11.6541 508.455 12.4188 499.188C17.1776 441.946 49.2035 387.413 97.5213 354.394C91.3476 375.781 94.5201 397.044 100.951 418.39C100.051 418.682 99.1505 418.932 98.3359 419.266C91.8133 421.615 85.8271 425.185 80.7152 429.772C79.3004 431.064 77.7999 432.94 78.5287 434.733C79.1716 436.234 81.101 436.734 82.773 437.068C86.803 437.818 90.8331 438.569 94.8203 439.278C98.0358 439.903 101.251 440.487 104.467 441.112C105.967 441.362 107.468 441.654 108.968 441.946C109.183 442.446 109.311 442.905 109.526 443.363C117.071 463.584 125.303 483.971 129.161 504.692C130.117 509.891 130.775 515.139 131.134 520.409C131.262 522.619 131.348 524.828 131.348 527.038Z" fill="white"/>
<path d="M648.963 464.667C649.405 485.064 646.51 505.399 640.388 524.912C640.174 525.62 639.916 526.329 639.659 527.038H513.441C515.246 518.398 518.11 509.999 521.973 502.023C532.477 480.343 549.626 461.791 566.561 443.363C589.884 417.973 612.649 392.791 616.251 359.771C625.495 373.477 632.874 388.289 638.202 403.839C631.679 406.189 625.693 409.758 620.581 414.346C619.166 415.638 617.665 417.514 618.394 419.307C619.08 420.808 620.967 421.308 622.639 421.642C626.669 422.392 630.699 423.142 634.729 423.851C637.901 424.476 641.117 425.06 644.332 425.644C647.159 438.477 648.709 451.545 648.963 464.667Z" fill="white"/>
<path d="M754.987 451.161C734.751 463.126 721.889 481.637 711.385 502.358C702.245 504.384 693.806 508.695 686.905 514.865C685.447 516.158 683.946 518.034 684.718 519.826C685.361 521.327 687.291 521.828 688.962 522.161C692.949 522.912 697.022 523.662 701.01 524.371C700.624 525.247 700.238 526.164 699.852 527.039H566.089C572.161 519.076 578.885 511.602 586.196 504.693C587.783 503.15 589.412 501.691 591.084 500.19C608.135 485.204 627.714 473.188 648.962 464.669C682.435 451.061 719.039 446.397 754.987 451.161Z" fill="white"/>
<path d="M588.382 527.038H469.281C468.631 517.764 468.688 508.455 469.453 499.188C474.212 441.946 506.238 387.413 554.556 354.394C548.382 375.781 551.554 397.044 557.985 418.39C557.085 418.682 556.185 418.932 555.37 419.266C548.847 421.615 542.861 425.185 537.749 429.772C536.335 431.064 534.834 432.94 535.563 434.733C536.206 436.234 538.135 436.734 539.807 437.068C543.837 437.818 547.867 438.569 551.854 439.278C555.07 439.903 558.285 440.487 561.501 441.112C563.001 441.362 564.502 441.654 566.002 441.946C566.217 442.446 566.346 442.905 566.56 443.363C574.106 463.584 582.337 483.971 586.196 504.692C587.151 509.891 587.809 515.139 588.168 520.409C588.296 522.619 588.382 524.828 588.382 527.038Z" fill="white"/>
<path d="M335.063 527.096C333.089 525.508 331.16 523.878 329.276 522.175C314.228 508.418 302.405 491.67 294.612 473.07C288.235 458.066 284.502 442.124 283.572 425.913C283.349 422.075 283.305 418.251 283.409 414.427C283.678 404.453 285.097 394.541 287.638 384.875C290.62 373.648 295.102 362.869 299.791 352.22C302.106 346.953 304.51 341.672 306.824 336.347C313.888 320.157 320.239 303.577 321.218 285.9C322.428 263.124 315.584 240.632 301.824 222.163C300.147 219.912 304.005 217.748 305.667 219.984C307.373 222.25 308.976 224.587 310.475 226.997C322.509 246.388 327.674 269.081 325.18 291.6C323.384 306.939 318.043 321.354 311.959 335.496C308.828 342.826 305.489 350.07 302.343 357.357C301.393 359.55 300.459 361.744 299.553 363.966C296.024 372.303 293.171 380.895 291.021 389.665C288.786 399.364 287.706 409.28 287.801 419.218C287.831 421.844 287.92 424.456 288.098 427.068C289.27 444.363 293.717 461.299 301.215 477.024C309.801 495.177 322.445 511.238 338.223 524.037C340.434 525.811 337.259 528.856 335.063 527.096Z" fill="#3F3D56" stroke="black" stroke-width="4"/>
<path d="M302.328 487.054C299.909 486.404 297.515 485.688 295.146 484.904C275.825 478.389 258.158 467.934 243.329 454.24C228.506 440.667 216.707 424.277 208.666 406.087C204.647 396.975 201.686 387.455 199.837 377.704C198.834 372.163 198.126 366.576 197.715 360.965C197.195 354.14 197.017 347.271 196.928 340.431C196.735 324.934 196.988 309.09 194.569 293.736C193.282 284.836 190.802 276.138 187.194 267.863C178.484 248.408 163.63 232.154 144.785 221.457C142.307 220.057 144.547 216.32 147.025 217.72C149.325 219.018 151.581 220.389 153.777 221.861C171.652 233.849 185.365 250.831 193.1 270.562C195.845 277.744 197.805 285.188 198.946 292.769C201.632 309.667 201.128 327.098 201.439 344.14C201.543 349.941 201.751 355.756 202.226 361.557C202.678 367.802 203.556 374.011 204.852 380.143C206.94 389.729 210.13 399.057 214.364 407.949C222.962 425.875 235.32 441.854 250.645 454.86C265.908 467.898 283.962 477.47 303.5 482.883C306.26 483.634 305.088 487.818 302.328 487.054Z" fill="#3F3D56" stroke="black" stroke-width="4"/>
<path d="M460.42 242.884C458.269 244.501 456.186 246.203 454.173 247.993C438.029 262.411 427.052 281.474 422.848 302.393C422.552 303.894 422.299 305.409 422.077 306.924C418.634 330.272 423.828 353.966 426.365 377.169C426.454 377.963 426.543 378.742 426.617 379.535C427.891 390.417 428.045 401.395 427.077 412.306C426.055 422.164 423.93 431.885 420.741 441.295C414.312 460.067 404.034 477.376 390.53 492.175C377.038 507.084 360.368 518.956 341.68 526.966C339.083 528.062 336.813 524.325 339.44 523.228C341.769 522.233 344.084 521.194 346.354 520.083C364.436 511.092 380.286 498.378 392.8 482.825C405.335 467.392 414.372 449.556 419.317 430.487C421.819 420.835 423.149 410.931 423.279 400.978C423.324 394.237 422.997 387.498 422.299 380.791C421.736 374.932 420.964 369.074 420.192 363.23C417.744 344.904 415.281 326.289 417.536 308.006C418.228 302.276 419.44 296.617 421.157 291.095C427.52 270.819 440.12 252.926 457.26 239.825C459.5 238.123 462.676 241.167 460.42 242.884Z" fill="#3F3D56" stroke="black" stroke-width="4"/>
<path d="M304.458 295.877C299.023 283.126 288.835 272.388 279.864 261.365C268.956 247.934 246.507 254.13 245.039 271.174C255.106 274.392 256.413 288.532 244.898 290.467C247.838 321.319 268.083 349.768 296.225 364.067L310.143 338.777C312.024 324.378 309.226 307.052 304.458 295.877Z" fill="#F0EBFA"/>
<path d="M310.136 338.836C310.29 338.538 310.445 338.239 310.601 337.941L310.142 338.775L310.136 338.836Z" fill="#2F2E41"/>
<path d="M409.814 404.1C404.378 391.35 394.191 380.611 385.22 369.588C374.312 356.158 351.862 362.354 350.394 379.398C360.461 382.616 361.768 396.755 350.254 398.691C353.194 429.542 373.438 457.992 401.58 472.29L415.499 447C417.38 432.602 414.582 415.275 409.814 404.1Z" fill="#F0EBFA"/>
<path d="M415.491 447.061C415.646 446.762 415.801 446.464 415.957 446.166L415.498 447L415.491 447.061Z" fill="#2F2E41"/>
<path d="M596.447 185.051L593.479 195.152L594.963 236.998L657.286 218.239L663.544 178.136L596.447 185.051Z" fill="#9E616A"/>
<path d="M551.321 499.869L535.894 496.952L540.127 437.695L562.896 442.002L551.321 499.869Z" fill="#9E616A"/>
<path d="M558.026 493.452L552.856 492.166L536.517 488.076L533.926 487.425L531.892 497.595L505.59 508.776C504.29 509.327 503.205 510.268 502.493 511.461C501.782 512.654 501.482 514.037 501.636 515.408C501.791 516.78 502.393 518.066 503.353 519.081C504.314 520.096 505.583 520.785 506.976 521.048L536.02 526.541L543.027 517.429L542.982 527.858L553.921 529.927L558.026 493.452Z" fill="#2F2E41"/>
<path d="M749.798 489.723L734.666 493.852L711.087 439.056L733.42 432.963L749.798 489.723Z" fill="#9E616A"/>
<path d="M752.826 481.061L747.613 482.169L731.125 485.649L728.509 486.198L731.388 496.173L713.049 517.649C712.142 518.709 711.606 520.023 711.522 521.4C711.437 522.777 711.807 524.144 712.579 525.301C713.35 526.459 714.482 527.346 715.809 527.833C717.136 528.32 718.588 528.382 719.954 528.009L748.442 520.235L750.495 509.033L755.271 518.371L766 515.443L752.826 481.061Z" fill="#2F2E41"/>
<path d="M591.996 228.34L662.392 207.265C662.392 207.265 660.254 213.91 669.104 228.207C678.349 243.142 683.59 260.573 683.791 274.299C684.226 303.993 688.314 333.528 697.462 361.861L698.256 364.32C698.256 364.32 719.576 381.235 728.512 417.371L746.891 461.252L724.061 467.876L664.267 380.263L658.585 375.79C654.451 372.536 651.083 368.456 648.71 363.827C646.338 359.197 645.015 354.126 644.832 348.956L626.871 320.025L613.521 345.495L591.935 375.354L578.76 419.332C574.788 439.819 571.495 458.998 557.866 475.091L533.213 471.887L550.447 371.196L565.894 327.438L577.477 294.626L584.576 274.516L591.996 228.34Z" fill="#43184E"/>
<path d="M587.687 207.274C586.746 213.042 588.269 218.377 587.506 225.19C587.38 226.319 584.418 228.96 584.327 230.081C584.11 232.754 586.287 233.859 586.354 236.393C586.406 238.372 584.282 241.821 584.571 243.641C587.619 262.817 605.363 271.332 670.457 230.792C670.457 230.792 676.217 227.431 672.243 220.543C671.183 218.706 675.814 216.568 676.217 213.986C676.524 212.025 673.996 209.474 674.323 207.264C674.709 204.657 675.106 201.889 675.504 198.992C680.695 161.187 686.093 101.311 671.008 86.313L662.491 71.0537L630.577 76.3353L630.465 89.4263L607.774 112.44C607.774 112.44 585.786 134.466 593.267 155.728C598.693 176.167 596.676 185.333 587.687 207.274Z" fill="#A484E1"/>
<path d="M652.834 119.183C650.477 118.51 648.007 118.296 645.564 118.552C643.122 118.809 640.756 119.532 638.601 120.679C636.447 121.826 634.546 123.375 633.008 125.238C631.469 127.1 630.324 129.239 629.637 131.533L615.205 179.709L568.888 211.964C566.97 211.661 565.002 211.887 563.21 212.618C561.417 213.349 559.872 214.554 558.749 216.097C557.626 217.639 556.972 219.458 556.859 221.345C556.747 223.231 557.181 225.111 558.113 226.77C559.045 228.428 560.438 229.799 562.131 230.726C563.825 231.653 565.752 232.099 567.694 232.013C569.636 231.928 571.513 231.314 573.114 230.241C574.714 229.169 575.973 227.681 576.747 225.947L638.798 195.54L664.362 144.578C665.554 142.202 666.198 139.602 666.25 136.96C666.301 134.317 665.759 131.695 664.662 129.277C663.564 126.859 661.937 124.703 659.894 122.96C657.851 121.216 655.442 119.927 652.834 119.183Z" fill="#9E616A"/>
<path d="M647.764 188.282L615.617 173.395L615.507 173.146C614.785 171.523 614.583 169.727 614.927 167.992C615.27 166.256 616.144 164.661 617.433 163.415L617.754 163.103L630.367 120.534L634.741 116.282L634.786 113.203C634.922 103.894 635.79 94.672 641.169 90.269C644.207 87.7804 648.372 86.9864 653.898 87.8367C657.866 88.4474 661.642 89.9178 664.947 92.1392C668.252 94.3606 671 97.2762 672.99 100.67C674.979 104.064 676.158 107.85 676.44 111.747C676.722 115.644 676.098 119.552 674.617 123.184L673.742 125.264L668.927 131.585L667.35 142.842L662.847 148.68L647.764 188.282Z" fill="#3F3D56"/>
<path d="M604.604 75.7352L611.425 75.1545C610.643 72.5391 610.157 69.8487 609.975 67.1308C611.539 70.0582 613.699 72.6451 616.324 74.7335L655.435 71.3769L679.232 24.6774C673.567 6.5815 658.896 -4.06972 640.385 1.46764C639.269 1.80142 638.129 2.1995 636.993 2.65396C626.476 4.01795 616.915 9.29668 610.32 17.3788C603.726 25.461 600.613 35.716 601.638 45.9849C592.492 62.4727 599.587 68.4352 604.604 75.7352Z" fill="#2F2E41"/>
<path d="M631.533 67.7913C646.377 67.7913 658.411 56.089 658.411 41.6535C658.411 27.2179 646.377 15.5156 631.533 15.5156C616.688 15.5156 604.654 27.2179 604.654 41.6535C604.654 56.089 616.688 67.7913 631.533 67.7913Z" fill="#9E616A"/>
<path d="M595.527 34.433C598.407 36.4192 606.219 36.6008 615.222 35.9398C615.155 35.774 615.101 35.604 615.047 35.434C614.266 32.8186 613.78 30.1281 613.598 27.4103C615.161 30.3377 617.321 32.9246 619.947 35.013C620.143 35.1689 620.339 35.3248 620.549 35.4766C628.207 34.7029 636.182 33.4908 642.391 32.4203C642.835 48.0572 630.804 64.5921 635.282 72.8403L684.39 68.1961C682.954 64.6414 682.096 60.8914 681.845 57.0802C684.211 61.5014 687.91 65.1133 692.447 67.4315L696.621 67.0416L696.016 61.0835C698.664 34.3765 676.868 14.3657 649.753 8.75353C643.722 3.97135 635.99 1.70536 628.247 2.45091L622.115 3.02565C618.249 3.39003 614.494 4.49146 611.065 6.26706C607.636 8.04265 604.601 10.4576 602.132 13.3741C599.663 16.2906 597.809 19.6514 596.675 23.2647C595.542 26.878 595.152 30.673 595.527 34.433Z" fill="#1F0F3D"/>
<path d="M637.074 3.97129C643.222 5.03119 648.795 8.15337 652.821 12.7949C656.848 17.4363 659.074 23.3034 659.112 29.3758C659.128 29.8114 659.317 30.2242 659.639 30.527C659.961 30.8298 660.392 30.9991 660.84 30.9991C661.289 30.9991 661.719 30.8298 662.042 30.527C662.364 30.2242 662.553 29.8114 662.568 29.3758C662.53 22.5688 660.056 15.9872 655.572 10.7603C651.087 5.53348 644.872 1.98728 637.993 0.730303C635.818 0.349384 634.885 3.58785 637.074 3.97129Z" fill="#FD6584"/>
<path d="M245.534 156.043C241.92 168.144 242.953 181.092 248.444 192.519C253.934 203.946 263.515 213.086 275.431 218.267C287.348 223.448 300.804 224.323 313.336 220.732C325.868 217.141 336.637 209.324 343.673 198.712C350.709 188.1 353.541 175.402 351.65 162.944C349.759 150.486 343.271 139.1 333.376 130.872C323.48 122.643 310.837 118.121 297.762 118.134C284.687 118.147 272.054 122.694 262.176 130.943C262.761 131.832 263.282 132.76 263.735 133.719C263.856 133.965 263.972 134.228 264.083 134.48C264.247 134.849 264.394 135.214 264.531 135.584C264.695 136.013 264.84 136.445 264.974 136.883C265.644 139.032 265.978 141.264 265.967 143.508C264.928 141.233 263.54 139.121 261.849 137.243C261.814 137.203 261.774 137.166 261.731 137.134C261.564 136.951 261.398 136.769 261.223 136.584C260.474 135.799 259.676 135.06 258.832 134.37C258.76 134.316 258.69 134.254 258.618 134.199C252.464 140.339 247.971 147.84 245.534 156.043Z" fill="white"/>
<path d="M64.5416 159.842C60.9282 171.942 61.9613 184.891 67.4516 196.318C72.942 207.744 82.5223 216.885 94.439 222.066C106.356 227.247 119.812 228.122 132.343 224.531C144.875 220.94 155.645 213.123 162.681 202.51C169.717 191.898 172.549 179.201 170.658 166.743C168.766 154.285 162.279 142.899 152.383 134.67C142.488 126.441 129.845 121.92 116.77 121.933C103.695 121.946 91.062 126.493 81.1839 134.741C81.7691 135.631 82.29 136.559 82.743 137.517C82.8639 137.764 82.9802 138.026 83.0906 138.279C83.2544 138.648 83.402 139.013 83.539 139.383C83.7027 139.812 83.8478 140.244 83.9823 140.682C84.6518 142.831 84.9862 145.063 84.9744 147.306C83.9354 145.032 82.5473 142.92 80.8567 141.042C80.8215 141.002 80.782 140.965 80.7389 140.933C80.5722 140.75 80.4056 140.568 80.2308 140.383C79.4821 139.598 78.6836 138.858 77.8398 138.169C77.7675 138.114 77.6976 138.052 77.6253 137.998C71.4718 144.138 66.9788 151.639 64.5416 159.842Z" fill="white"/>
<path d="M302.862 136.116L278.491 171.761L298.651 186.179L302.862 136.116Z" fill="#8C8C8C"/>
<path d="M278.585 171.834L300.838 162.91L298.821 186.171L278.585 171.834Z" fill="#383838"/>
<path d="M303.261 136.029L321.499 174.109L299.142 186.097L303.261 136.029Z" fill="#333333"/>
<path d="M321.648 174.168L301.129 162.836L299.164 186.1L321.648 174.168Z" fill="#141414"/>
<path d="M278.461 176.05L297.098 208.52L298.635 190.396L278.461 176.05Z" fill="#8C8C8C"/>
<path d="M321.4 178.386L297.46 208.442L298.997 190.318L321.4 178.386Z" fill="#333333"/>
<path d="M96.9622 140.47L96.2028 184.003L121.337 184.941L96.9622 140.47Z" fill="#8C8C8C"/>
<path d="M96.2683 184.008L110.047 164.195L121.382 184.901L96.2683 184.008Z" fill="#383838"/>
<path d="M97.1748 140.396L133.887 162.316L121.631 184.821L97.1748 140.396Z" fill="#333333"/>
<path d="M133.916 162.337L110.247 164.132L121.628 184.812L133.916 162.337Z" fill="#141414"/>
<path d="M98.3613 187.671L132.279 204.688L123.436 188.58L98.3613 187.671Z" fill="#8C8C8C"/>
<path d="M135.927 166.048L132.517 204.605L123.674 188.497L135.927 166.048Z" fill="#333333"/>
<path d="M421.086 177.872C417.472 189.972 418.505 202.92 423.996 214.347C429.486 225.774 439.066 234.914 450.983 240.095C462.9 245.276 476.356 246.151 488.887 242.56C501.419 238.969 512.189 231.152 519.225 220.54C526.261 209.928 529.093 197.23 527.201 184.772C525.31 172.314 518.823 160.929 508.927 152.7C499.031 144.471 486.389 139.949 473.314 139.962C460.239 139.975 447.606 144.522 437.728 152.771C438.313 153.66 438.834 154.588 439.287 155.547C439.408 155.793 439.524 156.056 439.634 156.308C439.798 156.677 439.946 157.042 440.083 157.412C440.247 157.841 440.392 158.273 440.526 158.711C441.196 160.86 441.53 163.092 441.518 165.336C440.479 163.061 439.091 160.949 437.401 159.072C437.365 159.031 437.326 158.995 437.283 158.962C437.116 158.78 436.95 158.597 436.775 158.412C436.026 157.627 435.228 156.888 434.384 156.198C434.311 156.144 434.242 156.082 434.169 156.028C428.016 162.167 423.523 169.668 421.086 177.872Z" fill="white"/>
<path d="M488.006 154.996L455.354 183.387L471.251 202.515L488.006 154.996Z" fill="#8C8C8C"/>
<path d="M455.457 183.494L479.288 180.48L471.393 202.521L455.457 183.494Z" fill="#383838"/>
<path d="M488.427 154.898L496.47 196.504L471.759 202.446L488.427 154.898Z" fill="#333333"/>
<path d="M496.603 196.584L479.624 180.398L471.779 202.455L496.603 196.584Z" fill="#141414"/>
<path d="M454.304 187.553L464.086 223.781L470.189 206.592L454.304 187.553Z" fill="#8C8C8C"/>
<path d="M495.33 200.625L464.493 223.697L470.596 206.508L495.33 200.625Z" fill="#333333"/>
<path d="M446.122 370.646C457.211 379.262 471.463 383.884 484.792 389.326C501.011 395.969 517.597 380.004 510.422 364.388C500.008 366.296 491.844 354.526 500.968 347.426C483.079 321.787 451.227 306.374 419.483 307.062L419.848 335.744C425.347 349.237 436.399 363.098 446.122 370.646Z" fill="#F0EBFA"/>
<path d="M172.922 372.089C161.833 380.704 147.58 385.326 134.252 390.769C118.032 397.411 101.447 381.446 108.622 365.831C119.035 367.738 127.199 355.968 118.076 348.868C135.964 323.229 167.816 307.817 199.56 308.505L199.196 337.186C193.696 350.679 182.645 364.54 172.922 372.089Z" fill="#F0EBFA"/>
</g>
</svg>
