<svg width="684" height="593" viewBox="0 0 684 593" fill="none" xmlns="http://www.w3.org/2000/svg">
<path d="M39.2642 591.885C39.2127 591.64 34.2317 567.147 44.4042 546.804C54.5767 526.461 76.2908 517.49 76.5089 517.401L77.5013 517L77.7358 518.115C77.7873 518.36 82.7683 542.853 72.5958 563.196C62.4238 583.539 40.7093 592.51 40.4911 592.599L39.4982 593L39.2642 591.885ZM76.1403 519.722C71.7908 521.74 54.6246 530.57 46.0331 547.751C37.4407 564.933 40.033 585.253 40.8597 590.278C45.2074 588.265 62.3669 579.449 70.9669 562.25C79.5589 545.068 76.9674 524.75 76.1403 519.722Z" fill="#F1F1F1"/>
<path d="M64.8621 556.397C46.9128 568.393 40 592.221 40 592.221C40 592.221 62.1887 596.599 80.1379 584.603C98.0872 572.607 105 548.779 105 548.779C105 548.779 82.8113 544.401 64.8621 556.397Z" fill="#F1F1F1"/>
<path d="M336.295 365.742C336.597 364.187 336.553 362.584 336.168 361.047C335.783 359.511 335.066 358.077 334.067 356.847C333.067 355.618 331.811 354.622 330.385 353.931C328.96 353.239 327.4 352.869 325.816 352.845L316.665 329.833L301.324 331.983L314.703 364.3C314.84 366.964 315.95 369.485 317.822 371.385C319.693 373.286 322.197 374.434 324.859 374.612C327.52 374.79 330.155 373.985 332.262 372.35C334.37 370.715 335.805 368.364 336.295 365.742Z" fill="#9F616A"/>
<path d="M308.033 357.657L303.28 346.322L273.658 289.937L275.269 185.605L275.578 185.564C294.532 183.059 307.356 270.392 307.893 274.111L326.609 338.12L331.064 352.228L308.033 357.657Z" fill="#6C63FF"/>
<path d="M262.518 577.657L276.92 577.656L283.771 522.105L262.515 522.106L262.518 577.657Z" fill="#9F616A"/>
<path d="M258.844 572.956L287.207 572.955H287.208C292.002 572.955 296.599 574.86 299.989 578.249C303.378 581.639 305.283 586.236 305.283 591.03V591.617L258.845 591.619L258.844 572.956Z" fill="#2F2E41"/>
<path d="M130.095 555.715L141.912 563.949L179.294 522.291L161.854 510.138L130.095 555.715Z" fill="#9F616A"/>
<path d="M129.769 549.757L153.04 565.972L153.041 565.973C156.973 568.714 159.656 572.905 160.499 577.624C161.342 582.343 160.276 587.204 157.536 591.137L157.2 591.618L119.1 565.069L129.769 549.757Z" fill="#2F2E41"/>
<path d="M254.603 564.601L253.98 460.391L244.918 394.865L228.023 452.489L227.991 452.536L166.766 541.421L142.942 529.351L143.073 529.041C144.529 525.578 178.835 444.247 188.056 444.247C188.861 444.303 189.668 444.163 190.407 443.839C191.146 443.514 191.796 443.014 192.299 442.383C195.005 438.769 192.801 431.1 192.778 431.023C190.139 420.077 196.776 416.349 198.098 415.727L201.653 342.33L202.022 342.355L298.411 349.117L294.368 440.882L285.669 561.114L285.37 561.148L254.603 564.601Z" fill="#2F2E41"/>
<path d="M299.884 365.38L299.467 365.346L195.803 356.99L196.059 322.69L201.132 233.132L201.161 233.07L221.824 188.211L236.471 181.579L257.842 180.454L257.894 180.467L277.396 185.299L297.684 330.938L299.884 365.38Z" fill="#6C63FF"/>
<path d="M261.19 168.958C274.417 161.727 279.278 145.144 272.047 131.917C264.817 118.69 248.233 113.829 235.007 121.06C221.78 128.29 216.919 144.874 224.149 158.1C231.38 171.327 247.963 176.188 261.19 168.958Z" fill="#9F616A"/>
<path d="M220.65 151.86V141.226C220.65 141.226 212.074 131.125 221.507 128.581C221.507 128.581 224.08 103.138 246.377 115.011C246.377 115.011 277.251 109.923 273.821 127.733C273.821 127.733 281.539 123.083 278.966 134.957L273.99 154.082C273.99 154.082 276.393 141.448 268.675 139.752L264.387 137.208C264.387 137.208 252.381 149.081 234.371 134.664C234.371 134.664 226.653 132.822 227.51 140.454C228.368 148.087 220.65 151.86 220.65 151.86Z" fill="#2F2E41"/>
<path d="M245.257 339.766C245.274 338.181 244.944 336.613 244.289 335.17C243.634 333.727 242.671 332.445 241.468 331.415C240.264 330.385 238.849 329.631 237.323 329.206C235.796 328.782 234.195 328.697 232.633 328.959L219.501 307.962L204.795 312.83L223.756 342.221C224.369 344.817 225.913 347.098 228.095 348.632C230.278 350.166 232.947 350.846 235.597 350.543C238.247 350.241 240.695 348.976 242.475 346.99C244.255 345.003 245.245 342.433 245.257 339.766Z" fill="#9F616A"/>
<path d="M211.34 333.147L187.582 284.913L187.603 284.795C187.699 284.261 197.262 231.162 204.576 211.644C211.937 192.002 222.012 188.059 222.437 187.9L222.65 187.821L231.683 196.487L219.169 280.014L232.658 320.297L211.34 333.147Z" fill="#6C63FF"/>
<path d="M396 112H366C361.582 112 358 115.582 358 120V150C358 154.418 361.582 158 366 158H396C400.418 158 404 154.418 404 150V120C404 115.582 400.418 112 396 112Z" fill="white"/>
<path d="M333 163H317C312.582 163 309 166.582 309 171V187C309 191.418 312.582 195 317 195H333C337.418 195 341 191.418 341 187V171C341 166.582 337.418 163 333 163Z" fill="white"/>
<path d="M404 83C404 96.8071 415.193 108 429 108H659C672.807 108 684 96.8071 684 83V25C684 11.1929 672.807 0 659 0H429C415.193 0 404 11.1929 404 25V83Z" fill="white"/>
<path d="M348.089 593H0.911227C0.669555 593 0.43778 592.895 0.266892 592.707C0.0960033 592.52 0 592.265 0 592C0 591.735 0.0960033 591.48 0.266892 591.293C0.43778 591.105 0.669555 591 0.911227 591H348.089C348.33 591 348.562 591.105 348.733 591.293C348.904 591.48 349 591.735 349 592C349 592.265 348.904 592.52 348.733 592.707C348.562 592.895 348.33 593 348.089 593Z" fill="#CBCBCB"/>
<path d="M465.288 44.848L459.696 60.256L456.528 61.48L452.88 50.848L449.664 60.256L446.52 61.48L440.256 44.656L437.928 43.36L438.552 42.16H445.608V43.144L443.88 44.44L448.8 57.928L452.064 48.448L450.744 44.608L448.536 43.336L449.136 42.136H456.744V43.12L454.488 44.704L458.856 57.904L463.512 44.92L459.432 43.336L460.032 42.136H467.52V43.144L465.288 44.848ZM475.313 60.976C474.577 61.152 473.673 61.24 472.601 61.24C471.497 61.24 470.505 60.968 469.625 60.424C468.761 59.864 468.081 59.112 467.585 58.168C467.089 57.208 466.841 56.152 466.841 55C466.841 53.752 467.225 52.592 467.993 51.52C468.777 50.432 469.753 49.568 470.921 48.928C472.089 48.272 473.217 47.944 474.305 47.944C475.889 47.944 477.121 48.56 478.001 49.792C478.881 51.024 479.313 52.68 479.297 54.76H470.489C470.617 55.976 470.977 56.96 471.569 57.712C472.177 58.464 472.993 58.84 474.017 58.84C475.089 58.84 476.625 58.128 478.625 56.704L479.321 57.808L475.313 60.976ZM472.937 50.248C471.353 50.248 470.521 51.344 470.441 53.536H475.649C475.521 52.752 475.377 52.144 475.217 51.712C475.073 51.264 474.817 50.912 474.449 50.656C474.097 50.384 473.593 50.248 472.937 50.248ZM488.62 61H481.564V60.016L483.7 58.288V44.176L481.564 42.712V41.728L485.908 40.048H487.06V59.008L489.22 59.8L488.62 61ZM498.435 47.944C499.139 47.944 499.947 48.04 500.859 48.232C501.771 48.408 502.435 48.608 502.851 48.832V52.816H501.699C501.091 52.016 500.387 51.392 499.587 50.944C498.787 50.48 497.963 50.248 497.115 50.248C496.443 50.248 495.931 50.56 495.579 51.184C495.227 51.792 495.051 52.68 495.051 53.848C495.051 55.272 495.355 56.464 495.963 57.424C496.571 58.368 497.451 58.84 498.603 58.84C499.579 58.84 500.955 58.24 502.731 57.04L503.451 58.144L499.851 60.976C499.147 61.152 498.267 61.24 497.211 61.24C496.107 61.24 495.115 60.968 494.235 60.424C493.371 59.864 492.691 59.112 492.195 58.168C491.699 57.208 491.451 56.152 491.451 55C491.451 53.752 491.811 52.592 492.531 51.52C493.251 50.432 494.155 49.568 495.243 48.928C496.347 48.272 497.411 47.944 498.435 47.944ZM513.868 47.944C514.972 47.944 515.964 48.224 516.844 48.784C517.724 49.328 518.404 50.072 518.884 51.016C519.38 51.96 519.628 53.008 519.628 54.16C519.628 55.408 519.236 56.576 518.452 57.664C517.684 58.752 516.716 59.624 515.548 60.28C514.38 60.92 513.252 61.24 512.164 61.24C511.06 61.24 510.068 60.968 509.188 60.424C508.324 59.864 507.644 59.112 507.148 58.168C506.652 57.208 506.404 56.152 506.404 55C506.404 53.752 506.788 52.592 507.556 51.52C508.34 50.432 509.316 49.568 510.484 48.928C511.652 48.272 512.78 47.944 513.868 47.944ZM512.476 50.248C511.676 50.248 511.068 50.552 510.652 51.16C510.252 51.768 510.052 52.664 510.052 53.848C510.052 55.304 510.356 56.512 510.964 57.472C511.572 58.432 512.436 58.912 513.556 58.912C515.188 58.912 516.004 57.704 516.004 55.288C516.004 53.848 515.7 52.648 515.092 51.688C514.484 50.728 513.612 50.248 512.476 50.248ZM545.132 61H540.212V52.96C540.212 52.16 540.084 51.608 539.828 51.304C539.588 50.984 539.156 50.824 538.532 50.824C538.1 50.824 537.66 50.904 537.212 51.064C536.78 51.224 536.284 51.528 535.724 51.976V59.032L537.812 59.8L537.212 61H532.364V52.96C532.364 52.16 532.236 51.608 531.98 51.304C531.74 50.984 531.308 50.824 530.684 50.824C530.236 50.824 529.788 50.904 529.34 51.064C528.908 51.224 528.412 51.528 527.852 51.976V59.032L529.964 59.8L529.364 61H522.356V60.016L524.492 58.288V52.048L522.356 50.752V49.768L526.82 47.728L527.66 50.68L530.732 48.136C531.036 48.008 531.476 47.944 532.052 47.944C532.996 47.944 533.78 48.184 534.404 48.664C535.028 49.128 535.436 49.776 535.628 50.608L538.604 48.136C538.908 48.008 539.348 47.944 539.924 47.944C541.044 47.944 541.932 48.28 542.588 48.952C543.26 49.608 543.596 50.504 543.596 51.64V59.008L545.732 59.8L545.132 61ZM556.172 60.976C555.436 61.152 554.532 61.24 553.46 61.24C552.356 61.24 551.364 60.968 550.484 60.424C549.62 59.864 548.94 59.112 548.444 58.168C547.948 57.208 547.7 56.152 547.7 55C547.7 53.752 548.084 52.592 548.852 51.52C549.636 50.432 550.612 49.568 551.78 48.928C552.948 48.272 554.076 47.944 555.164 47.944C556.748 47.944 557.98 48.56 558.86 49.792C559.74 51.024 560.172 52.68 560.156 54.76H551.348C551.476 55.976 551.836 56.96 552.428 57.712C553.036 58.464 553.852 58.84 554.876 58.84C555.948 58.84 557.484 58.128 559.484 56.704L560.18 57.808L556.172 60.976ZM553.796 50.248C552.212 50.248 551.38 51.344 551.3 53.536H556.508C556.38 52.752 556.236 52.144 556.076 51.712C555.932 51.264 555.676 50.912 555.308 50.656C554.956 50.384 554.452 50.248 553.796 50.248ZM582.493 50.8C583.677 51.184 584.613 51.8 585.301 52.648C585.989 53.48 586.333 54.432 586.333 55.504C586.333 56.512 585.917 57.464 585.085 58.36C584.253 59.24 583.213 59.944 581.965 60.472C580.717 61 579.533 61.264 578.413 61.264C577.613 61.264 576.829 61.224 576.061 61.144C574.781 61.064 573.789 61.024 573.085 61.024H569.797V60.04L572.053 58.264V44.104L569.509 43.336L570.109 42.136H573.061C574.517 42.136 575.949 42.088 577.357 41.992C578.445 41.928 579.245 41.896 579.757 41.896C580.877 41.896 581.861 42.104 582.709 42.52C583.557 42.936 584.213 43.504 584.677 44.224C585.141 44.928 585.373 45.72 585.373 46.6C585.373 47.4 585.109 48.168 584.581 48.904C584.053 49.624 583.357 50.256 582.493 50.8ZM581.605 47.776C581.605 46.56 581.293 45.576 580.669 44.824C580.045 44.056 579.117 43.672 577.885 43.672C577.053 43.672 576.293 43.88 575.605 44.296V50.608H578.725C579.637 50.608 580.341 50.368 580.837 49.888C581.349 49.392 581.605 48.688 581.605 47.776ZM579.085 59.176C580.157 59.176 581.005 58.912 581.629 58.384C582.253 57.84 582.565 57.104 582.565 56.176C582.565 54.992 582.221 54.04 581.533 53.32C580.861 52.584 579.861 52.192 578.533 52.144C578.421 52.16 578.261 52.168 578.053 52.168H575.605V58.624C576.581 59.024 577.741 59.224 579.085 59.224V59.176ZM601.74 61H596.82V58.912L594.108 61.048C593.788 61.176 593.388 61.24 592.908 61.24C591.468 61.24 590.42 60.888 589.764 60.184C589.124 59.464 588.804 58.6 588.804 57.592C588.804 57 589.004 56.424 589.404 55.864C589.82 55.288 590.404 54.744 591.156 54.232H596.82V53.128C596.82 51.304 595.844 50.392 593.892 50.392C592.868 50.392 591.556 50.928 589.956 52L589.236 50.92L592.644 48.208C593.316 48.032 594.156 47.944 595.164 47.944C596.748 47.944 597.98 48.32 598.86 49.072C599.74 49.824 600.18 50.92 600.18 52.36V58.96L602.34 59.8L601.74 61ZM593.844 58.72C594.74 58.72 595.732 58.312 596.82 57.496V55.456H592.716C592.396 55.84 592.236 56.304 592.236 56.848C592.236 57.376 592.38 57.824 592.668 58.192C592.972 58.544 593.364 58.72 593.844 58.72ZM611.286 47.944C611.99 47.944 612.798 48.04 613.71 48.232C614.622 48.408 615.286 48.608 615.702 48.832V52.816H614.55C613.942 52.016 613.238 51.392 612.438 50.944C611.638 50.48 610.814 50.248 609.966 50.248C609.294 50.248 608.782 50.56 608.43 51.184C608.078 51.792 607.902 52.68 607.902 53.848C607.902 55.272 608.206 56.464 608.814 57.424C609.422 58.368 610.302 58.84 611.454 58.84C612.43 58.84 613.806 58.24 615.582 57.04L616.302 58.144L612.702 60.976C611.998 61.152 611.118 61.24 610.062 61.24C608.958 61.24 607.966 60.968 607.086 60.424C606.222 59.864 605.542 59.112 605.046 58.168C604.55 57.208 604.302 56.152 604.302 55C604.302 53.752 604.662 52.592 605.382 51.52C606.102 50.432 607.006 49.568 608.094 48.928C609.198 48.272 610.262 47.944 611.286 47.944ZM626.071 59.8L625.471 61H618.415V60.016L620.551 58.288V44.176L618.415 42.712V41.728L622.759 40.048H623.911V59.008L626.071 59.8ZM633.751 61H629.335L625.063 54.616L629.455 51.016L626.887 49.384L627.487 48.184H633.703V49.168L628.375 53.584L632.095 58.936L634.351 59.8L633.751 61Z" fill="#49238F"/>
</svg>
