<svg width="491" height="479" viewBox="0 0 491 479" fill="none" xmlns="http://www.w3.org/2000/svg">
<g clip-path="url(#clip0_971_4723)">
<path d="M442.167 464.055C444.026 464.174 445.054 461.825 443.647 460.456L443.507 459.891C443.526 459.845 443.544 459.8 443.563 459.755C445.443 455.196 451.816 455.228 453.68 459.793C455.335 463.845 457.441 467.903 457.96 472.187C458.193 474.079 458.088 476.005 457.675 477.861C461.552 469.25 463.593 459.848 463.593 450.392C463.593 448.016 463.465 445.64 463.203 443.271C462.988 441.332 462.692 439.406 462.308 437.497C460.233 427.178 455.74 417.35 449.258 409.141C446.143 407.41 443.544 404.703 441.975 401.459C441.411 400.288 440.969 399.03 440.76 397.747C441.114 397.795 442.097 392.304 441.829 391.967C442.323 391.205 443.208 390.826 443.748 390.082C446.432 386.382 450.13 387.028 452.06 392.056C456.184 394.172 456.224 397.682 453.693 401.057C452.084 403.204 451.862 406.11 450.45 408.408C450.595 408.598 450.746 408.781 450.892 408.97C453.557 412.445 455.861 416.18 457.805 420.104C457.255 415.743 458.066 410.489 459.448 407.102C461.022 403.244 463.971 399.994 466.568 396.658C469.687 392.651 476.083 394.4 476.633 399.479C476.638 399.528 476.644 399.577 476.649 399.627C476.263 399.848 475.885 400.083 475.516 400.331C473.41 401.747 474.138 405.065 476.633 405.457L476.689 405.465C476.55 406.878 476.311 408.279 475.963 409.656C479.294 422.754 472.102 427.525 461.832 427.74C461.605 427.858 461.384 427.976 461.157 428.088C462.198 431.067 463.029 434.122 463.645 437.219C464.197 439.955 464.581 442.721 464.796 445.499C465.064 449.003 465.04 452.525 464.75 456.024L464.767 455.9C465.505 452.047 467.563 448.448 470.551 445.954C475.002 442.236 481.29 440.867 486.092 437.879C488.404 436.441 491.366 438.3 490.962 441.024L490.942 441.155C490.227 441.45 489.53 441.793 488.856 442.177C488.47 442.399 488.092 442.634 487.723 442.882C485.617 444.297 486.345 447.616 488.84 448.007L488.896 448.016C488.937 448.022 488.972 448.028 489.013 448.034C487.786 450.995 486.077 453.743 483.938 456.113C481.855 467.547 472.908 468.632 463.337 465.302H463.331C462.285 469.936 460.756 474.463 458.791 478.777H442.573C442.515 478.594 442.463 478.405 442.411 478.221C443.91 478.316 445.422 478.227 446.898 477.949C445.695 476.448 444.492 474.935 443.288 473.434C443.259 473.405 443.236 473.375 443.213 473.346C442.602 472.577 441.986 471.815 441.376 471.047L441.376 471.046C441.337 468.687 441.616 466.336 442.167 464.055Z" fill="#F2F2F2"/>
<path d="M143.775 477.911C143.775 478.515 144.252 479 144.846 479H489.803C490.397 479 490.874 478.515 490.874 477.911C490.874 477.307 490.397 476.822 489.803 476.822H144.846C144.252 476.822 143.775 477.307 143.775 477.911Z" fill="#CCCCCC"/>
<path d="M196.12 478.536H37.34C17.9796 478.536 2.22852 462.523 2.22852 442.839V95.9196C2.22852 76.2364 17.9796 60.2227 37.34 60.2227H196.12C215.48 60.2227 231.231 76.2364 231.231 95.9196V442.839C231.231 462.523 215.48 478.536 196.12 478.536Z" fill="#3F3D56"/>
<path d="M231.231 187.831C230.412 187.831 229.746 188.508 229.746 189.341V237.666C229.746 238.499 230.412 239.176 231.231 239.176C232.051 239.176 232.717 238.499 232.717 237.666V189.341C232.717 188.508 232.051 187.831 231.231 187.831Z" fill="#3F3D56"/>
<path d="M227.889 95.9204V442.833C227.889 459.966 214.773 473.98 198.188 475.068H198.181C197.936 475.083 197.691 475.098 197.438 475.105C197 475.128 196.562 475.136 196.116 475.136C196.116 475.136 194.482 475.015 191.497 474.788C188.481 474.562 184.092 474.222 178.618 473.777C176.977 473.648 175.247 473.505 173.42 473.354C169.78 473.052 165.785 472.719 161.499 472.342C159.791 472.198 158.024 472.04 156.219 471.881C146.995 471.073 136.664 470.129 125.768 469.057C123.927 468.884 122.07 468.702 120.198 468.514C119.708 468.461 119.21 468.415 118.713 468.363C110.944 467.585 5.57031 446.881 5.57031 442.833V95.9204C5.57031 78.0779 19.7929 63.6182 37.3428 63.6182H56.3112C59.3414 63.6182 61.7774 66.0193 62.0374 69.0925C62.0596 69.2964 62.0819 69.5002 62.119 69.7041C62.6686 72.7924 65.4537 74.9443 68.5433 74.9443H164.916C168.005 74.9443 170.79 72.7924 171.34 69.7041C171.377 69.5002 171.4 69.2964 171.422 69.0925C171.682 66.0193 174.118 63.6182 177.148 63.6182H196.116C213.666 63.6182 227.889 78.0779 227.889 95.9204Z" fill="white"/>
<path d="M1.48538 151.587C0.666171 151.587 0 152.264 0 153.097V165.178C0 166.011 0.66618 166.688 1.48538 166.688C2.30459 166.688 2.97077 166.011 2.97077 165.178V153.097C2.97077 152.264 2.30459 151.587 1.48538 151.587Z" fill="#3F3D56"/>
<path d="M1.48538 187.831C0.666171 187.831 0 188.508 0 189.341V212.749C0 213.582 0.66618 214.259 1.48538 214.259C2.30459 214.259 2.97077 213.581 2.97077 212.749V189.341C2.97077 188.508 2.30459 187.831 1.48538 187.831Z" fill="#3F3D56"/>
<path d="M1.48538 221.055C0.666171 221.055 0 221.732 0 222.565V245.972C0 246.805 0.66618 247.482 1.48538 247.482C2.30459 247.482 2.97077 246.805 2.97077 245.972V222.565C2.97077 221.732 2.30459 221.055 1.48538 221.055Z" fill="#3F3D56"/>
<path d="M55.7933 68.9062H27.3866C27.2324 68.9062 27.1074 69.0333 27.1074 69.1901V72.3978C27.1074 72.5546 27.2324 72.6816 27.3866 72.6816H55.7933C55.9475 72.6816 56.0725 72.5546 56.0725 72.3978V69.1901C56.0725 69.0333 55.9475 68.9062 55.7933 68.9062Z" fill="#E6E6E6"/>
<path d="M181.842 72.6813C183.483 72.6813 184.813 71.329 184.813 69.6609C184.813 67.9929 183.483 66.6406 181.842 66.6406C180.201 66.6406 178.871 67.9929 178.871 69.6609C178.871 71.329 180.201 72.6813 181.842 72.6813Z" fill="#E6E6E6"/>
<path d="M190.012 72.6813C191.653 72.6813 192.983 71.329 192.983 69.6609C192.983 67.9929 191.653 66.6406 190.012 66.6406C188.371 66.6406 187.041 67.9929 187.041 69.6609C187.041 71.329 188.371 72.6813 190.012 72.6813Z" fill="#E6E6E6"/>
<path d="M198.182 72.6813C199.822 72.6813 201.152 71.329 201.152 69.6609C201.152 67.9929 199.822 66.6406 198.182 66.6406C196.541 66.6406 195.211 67.9929 195.211 69.6609C195.211 71.329 196.541 72.6813 198.182 72.6813Z" fill="#E6E6E6"/>
<path d="M179.358 273.14H53.3597C51.3747 273.14 49.7598 271.498 49.7598 269.48C49.7598 267.462 51.3747 265.82 53.3597 265.82H179.358C181.343 265.82 182.958 267.462 182.958 269.48C182.958 271.498 181.343 273.14 179.358 273.14Z" fill="#E6E6E6"/>
<path d="M116.811 414.965C145.639 414.965 169.01 391.204 169.01 361.895C169.01 332.585 145.639 308.825 116.811 308.825C87.9817 308.825 64.6113 332.585 64.6113 361.895C64.6113 391.204 87.9817 414.965 116.811 414.965Z" fill="#6C63FF"/>
<path d="M125.106 344.566C120.701 344.75 115.721 345.058 112.464 348.495C109.636 351.48 109.016 355.911 111.884 359.098C114.761 362.294 119.232 362.727 122.548 365.22C126.441 368.148 125.87 373.939 122.103 376.714C117.661 379.986 111.925 378.46 107.864 375.347C106.823 374.55 105.813 376.336 106.842 377.125C110.481 379.914 115.229 381.467 119.727 380.132C123.788 378.928 126.935 375.562 127.255 371.184C127.408 369.094 126.824 366.973 125.546 365.324C124.197 363.582 122.253 362.511 120.289 361.639C116.908 360.138 111.085 358.196 112.068 353.309C113.26 347.385 120.352 346.824 125.106 346.625C126.405 346.571 126.411 344.512 125.106 344.566Z" fill="white"/>
<path d="M116.934 341.765L116.74 386.959C116.735 388.284 118.76 388.286 118.765 386.959L118.959 341.765C118.965 340.44 116.94 340.438 116.934 341.765Z" fill="white"/>
<path d="M393.371 0H136.01C126.569 0 118.893 7.80487 118.893 17.4032V196.705C118.893 206.304 126.569 214.109 136.01 214.109H393.371C402.812 214.109 410.488 206.304 410.488 196.705V17.4032C410.488 7.80487 402.812 0 393.371 0Z" fill="white"/>
<path d="M263.509 106.611C279.414 106.611 292.308 93.5024 292.308 77.3316C292.308 61.1608 279.414 48.0518 263.509 48.0518C247.603 48.0518 234.709 61.1608 234.709 77.3316C234.709 93.5024 247.603 106.611 263.509 106.611Z" fill="#6C63FF"/>
<path d="M268.972 64.2654C265.407 64.4148 261.394 64.6445 258.697 67.3417C256.463 69.576 255.682 73.0541 257.735 75.6847C259.896 78.4544 263.49 78.9799 266.311 80.7499C268.064 81.8499 269.226 83.5165 269.264 85.6582C269.299 87.6633 268.389 89.5366 266.868 90.7933C263.134 93.8766 258.043 92.6003 254.512 89.9037C253.817 89.3732 253.143 90.5642 253.83 91.0888C256.755 93.3221 260.521 94.6192 264.161 93.6583C267.511 92.7738 270.21 90.0943 270.573 86.5139C270.956 82.7402 268.518 80.1707 265.358 78.6966C262.47 77.3492 257.403 75.9136 257.881 71.7276C258.488 66.4054 264.897 65.8086 268.972 65.6379C269.837 65.6016 269.842 64.2289 268.972 64.2654Z" fill="white"/>
<path d="M262.775 61.7762L262.613 99.4357C262.609 100.319 263.959 100.32 263.963 99.4357L264.125 61.7762C264.129 60.8929 262.779 60.8918 262.775 61.7762Z" fill="white"/>
<path d="M393.371 0H136.01C126.569 0 118.893 7.80487 118.893 17.4032V196.705C118.893 206.304 126.569 214.109 136.01 214.109H393.371C402.812 214.109 410.488 206.304 410.488 196.705V17.4032C410.488 7.80487 402.812 0 393.371 0ZM408.688 196.705C408.688 205.297 401.822 212.279 393.371 212.279H136.01C127.559 212.279 120.693 205.297 120.693 196.705V17.4032C120.693 8.8114 127.559 1.82999 136.01 1.82999H393.371C401.822 1.82999 408.688 8.81139 408.688 17.4032V196.705Z" fill="#3F3D56"/>
<path d="M235.019 17.7051H209.765C208.496 17.7051 207.461 18.7573 207.461 20.0475C207.461 21.3467 208.496 22.399 209.765 22.399H235.019C236.288 22.399 237.323 21.3467 237.323 20.0475C237.323 18.7574 236.288 17.7051 235.019 17.7051Z" fill="#E6E6E6"/>
<path d="M277.317 17.7051H252.064C250.795 17.7051 249.76 18.7573 249.76 20.0475C249.76 21.3467 250.795 22.399 252.064 22.399H277.317C278.586 22.399 279.621 21.3467 279.621 20.0475C279.621 18.7574 278.586 17.7051 277.317 17.7051Z" fill="#E6E6E6"/>
<path d="M319.618 17.7051H294.365C293.096 17.7051 292.061 18.7573 292.061 20.0475C292.061 21.3467 293.096 22.399 294.365 22.399H319.618C320.887 22.399 321.922 21.3467 321.922 20.0475C321.922 18.7574 320.887 17.7051 319.618 17.7051Z" fill="#E6E6E6"/>
<path d="M361.269 123.081H168.114C160.077 123.081 153.543 129.724 153.543 137.895V151.272C153.543 159.443 160.077 166.086 168.114 166.086H361.269C369.306 166.086 375.84 159.443 375.84 151.272V137.895C375.84 129.724 369.306 123.081 361.269 123.081Z" fill="#6C63FF"/>
<path d="M65.8599 193.514L58.4531 189.947C61.4911 194.257 64.1088 200.989 65.5103 206.346C67.8831 201.356 71.7082 195.251 75.4945 191.604L67.6663 193.651C72.49 169.616 90.6332 152.361 111.41 152.361V150.531C89.7081 150.531 70.7851 168.509 65.8599 193.514Z" fill="#3F3D56"/>
<path d="M99.952 230.135H53.1527C51.1677 230.135 49.5527 228.493 49.5527 226.475C49.5527 224.457 51.1677 222.815 53.1527 222.815H99.952C101.937 222.815 103.552 224.457 103.552 226.475C103.552 228.493 101.937 230.135 99.952 230.135Z" fill="#E6E6E6"/>
<path d="M411.276 218.215L410.804 255.583L401.658 288.893L394.348 286.121L397.594 255.588L397.167 214.27L411.276 218.215Z" fill="#FFB6B6"/>
<path d="M401.627 294.265C402.484 289.475 400.912 285.172 398.115 284.655C395.317 284.137 392.354 287.6 391.497 292.39C390.639 297.18 392.211 301.482 395.008 302C397.806 302.518 400.769 299.055 401.627 294.265Z" fill="#FFB6B6"/>
<path d="M400.178 173.722C400.178 173.722 415.844 173.941 415.831 182.402C415.824 187.179 414.815 230.552 412.006 256.9C409.841 277.219 405.707 282.52 405.707 282.52L395.807 259.645L400.178 173.722Z" fill="#E6E6E6"/>
<path d="M399.775 250.066H346.867C351.302 240.006 354.028 230.424 349.766 222.803L399.775 219.855C397.276 230.144 396.971 240.241 399.775 250.066Z" fill="#FFB6B6"/>
<path d="M393.252 160.907L372.234 159.434L363.536 170.486L359.127 171.301C352.518 172.523 347.812 178.52 348.107 185.343L349.822 224.974L400.06 228.698L412.096 177.09L397.601 171.223L393.252 160.907Z" fill="#E6E6E6"/>
<path d="M265.074 172.862C266.565 174.225 267.629 175.819 268.192 177.364L283.205 189.444L277.342 196.539L262.744 183.521C261.173 183.115 259.502 182.207 258.011 180.843C254.604 177.727 253.424 173.415 255.374 171.211C257.324 169.007 261.667 169.746 265.074 172.862Z" fill="#FFB6B6"/>
<path d="M371.215 183.032L313.691 222.523L272.457 193.349L278.648 181.948L311.101 201.123L341.03 177.76C351.688 167.582 365.045 169.555 371.215 183.032Z" fill="#E6E6E6"/>
<path d="M381.495 156.123C390.107 156.123 397.089 149.026 397.089 140.27C397.089 131.515 390.107 124.417 381.495 124.417C372.884 124.417 365.902 131.515 365.902 140.27C365.902 149.026 372.884 156.123 381.495 156.123Z" fill="#FFB6B6"/>
<path d="M402.691 136.376V139.45L385.106 134.418L371.921 137.227C371.768 135.186 371.174 133.183 370.184 131.407C370.873 134.254 370.95 136.457 370.22 137.593L368.447 137.968C368.159 137.172 367.601 136.477 366.872 136.056C366.8 136.01 366.71 135.973 366.629 136.001C366.503 136.046 366.494 136.211 366.494 136.339C366.512 137.016 366.53 137.693 366.557 138.371L361.463 139.45V136.376C356.576 125.197 369.457 115.523 382.082 115.423C387.779 115.377 392.927 117.765 396.662 121.553C400.388 125.35 402.691 130.584 402.691 136.376Z" fill="#2F2E41"/>
<path d="M412.583 172.425L411.255 172.313C411.35 171.872 411.444 171.436 411.531 170.994C412.267 167.289 410.647 162.572 410.528 159.012C409.903 162.773 410.972 167.401 409.866 170.972C409.742 171.369 404.937 173.929 404.805 174.321C399.487 172.343 393.949 166.025 387.677 169.715C383.968 171.898 379.736 170.941 375.525 169.942C374.482 169.695 374.337 164.461 373.306 164.256C371.458 163.887 368.745 168.645 367.006 168.831L374.206 140.466C374.206 125.035 372.8 108.846 392.026 114.302C396.861 115.674 401.647 116.75 405.216 120.807C408.784 124.87 411.325 130.549 412.226 137.015C412.768 140.916 416.156 154.161 412.583 172.425Z" fill="#2F2E41"/>
<path d="M400.17 457.662L391.587 457.868L386.803 418.666L399.469 418.361L400.17 457.662Z" fill="#FFB7B7"/>
<path d="M370.723 475.867C370.723 477.342 371.752 478.537 373.021 478.537H390.057C390.057 478.537 391.733 471.685 398.569 468.737L399.041 478.537H407.829L406.764 462.779C406.764 462.779 409.115 454.348 404.233 450.039C399.35 445.729 403.305 446.329 403.305 446.329L401.384 436.576L388.104 438.164L388.006 453.474L381.562 468.67L372.109 473.418C371.267 473.84 370.723 474.803 370.723 475.867Z" fill="#2F2E41"/>
<path d="M374.055 451.273L365.805 453.687L351.393 417.002L363.568 413.439L374.055 451.273Z" fill="#FFB7B7"/>
<path d="M350.117 476.479C350.485 477.905 351.779 478.795 353.006 478.468L369.485 474.073C369.485 474.073 369.396 467.013 375.272 462.398L378.174 471.755L386.675 469.488L381.712 454.52C381.712 454.52 381.882 445.759 376.084 442.85C370.285 439.942 374.26 439.502 374.26 439.502L369.968 430.563L357.519 435.525L361.246 450.359L358.805 466.721L350.846 473.752C350.138 474.378 349.852 475.449 350.117 476.479Z" fill="#2F2E41"/>
<path d="M394.906 247.751L400.306 249.581C408.749 265.434 412.328 286.486 411.854 311.872L402.262 425.891H386.569L375.085 298.87L354.836 346.545L369.651 425.891L354.836 427.427L324.994 344.92L345.777 249.027L394.906 247.751Z" fill="#2F2E41"/>
</g>
<defs>
<clipPath id="clip0_971_4723">
<rect width="491" height="479" fill="white"/>
</clipPath>
</defs>
</svg>
