<svg width="406" height="477" viewBox="0 0 406 477" fill="none" xmlns="http://www.w3.org/2000/svg">
<g clip-path="url(#clip0_244_1547)">
<path d="M325.629 164.813H285.574V151.859C285.574 130.146 303.522 112.517 325.629 112.517L325.629 164.813Z" fill="#2F2E41"/>
<path d="M316.752 140.631L323.639 171.056L283.283 164.474L299.728 135.699L316.752 140.631Z" fill="#A0616A"/>
<path opacity="0.1" d="M316.752 140.631L323.639 171.056L283.283 164.474L299.728 135.699L316.752 140.631Z" fill="black"/>
<path d="M278.061 261.869H316.752V205.625H278.061V261.869Z" fill="#A0616A"/>
<path d="M341.9 307.853L333.388 352.696C333.388 352.696 338.805 383.858 322.554 415.781L311.721 448.463L295.471 446.183C295.471 446.183 305.53 421.861 305.53 411.221C305.53 400.58 307.852 359.537 307.852 359.537L306.691 312.703L341.9 307.853Z" fill="#2F2E41"/>
<path d="M293.15 445.423C293.15 445.423 311.721 438.583 313.269 448.464L312.495 453.024C312.495 453.024 319.459 473.546 309.4 475.066C299.34 476.586 290.054 478.866 289.281 474.306C288.507 469.745 288.519 464.053 290.447 460.059C292.376 456.064 293.15 445.423 293.15 445.423Z" fill="#2F2E41"/>
<path d="M283.321 300.896L278.8 346.296C278.8 346.296 264.773 374.749 271.344 409.851L272.496 444.204L288.751 446.453C288.751 446.453 285.975 420.342 288.987 410.121C292 399.9 301.392 359.842 301.392 359.842L315.767 315.174L283.321 300.896Z" fill="#2F2E41"/>
<path d="M291.196 446.357C291.196 446.357 275.294 434.713 271.01 443.781L270.462 448.373C270.462 448.373 257.962 466.183 267.194 470.391C276.426 474.599 284.7 479.326 286.735 475.157C288.769 470.987 290.369 465.516 289.648 461.153C288.927 456.789 291.196 446.357 291.196 446.357Z" fill="#2F2E41"/>
<path d="M332.615 236.027C350.814 252.709 352.165 279.102 341.514 310.513C341.514 310.513 307.466 333.315 282.703 304.433L270.322 245.908L332.615 236.027Z" fill="#2F2E41"/>
<path d="M302.05 154.701L321.395 157.741L319.848 205.625L341.515 248.188L313.657 261.869C313.657 261.869 291.99 221.586 288.121 196.504C284.252 171.422 286.573 153.181 286.573 153.181L302.05 154.701Z" fill="#6C63FF"/>
<path d="M287.347 156.221L268.002 159.262L269.549 207.145L264.906 251.229L275.74 263.39C275.74 263.39 297.407 223.106 301.276 198.025C305.145 172.943 302.823 154.701 302.823 154.701L287.347 156.221Z" fill="#6C63FF"/>
<path d="M310.56 157.362L314.816 156.222C314.816 156.222 329.906 154.321 332.227 160.402C334.549 166.482 333.775 202.205 333.775 202.205C333.775 202.205 337.768 246.049 322.229 246.549C306.691 247.049 309.786 210.566 309.786 210.566L310.56 157.362Z" fill="#6C63FF"/>
<path d="M309.998 148.981C321.059 148.981 330.025 140.174 330.025 129.31C330.025 118.446 321.059 109.639 309.998 109.639C298.937 109.639 289.971 118.446 289.971 129.31C289.971 140.174 298.937 148.981 309.998 148.981Z" fill="#A0616A"/>
<path d="M285.024 158.881L280.768 157.741C280.768 157.741 265.679 155.841 263.357 161.921C261.036 168.002 261.81 203.725 261.81 203.725C261.81 203.725 257.817 247.569 273.355 248.068C288.893 248.568 285.798 212.085 285.798 212.085L285.024 158.881Z" fill="#6C63FF"/>
<path d="M298.429 156.382C294.133 155.311 289.262 159.818 287.548 166.452C286.827 169.092 286.759 171.864 287.352 174.535L285.506 182.075L285.37 182.068L270.808 215.776C267.422 223.613 267.78 232.611 272.099 239.993C274.668 244.384 278.04 247.336 282 244.323C288.57 239.322 292.862 210.691 294.821 194.244L299.352 177.526C301.17 175.455 302.458 172.986 303.105 170.326C304.819 163.696 302.725 157.453 298.429 156.382Z" fill="#A0616A"/>
<path d="M271.658 145.224C272.676 142.182 274.687 139.518 275.587 136.44C276.782 132.352 279.325 141.42 279.573 137.174C280.045 129.105 292.584 108.348 299.742 104.361C306.9 100.374 311.011 101.576 318.303 105.321C318.303 105.321 321.843 105.542 326.25 107.679C330.657 109.816 334.624 113.239 336.338 117.763C337.697 121.349 337.547 125.287 338.001 129.088C339.265 139.675 345.308 149.745 344.011 160.328C343.606 163.631 342.328 167.045 339.58 168.987C336.831 170.93 332.39 170.718 330.581 167.907C329.963 166.948 329.702 165.81 329.173 164.801C328.644 163.792 327.688 162.851 326.533 162.882C324.797 162.93 323.913 165.218 324.598 166.786C325.282 168.353 326.891 169.3 328.402 170.142C324.804 171.732 320.341 171.237 317.195 168.899C314.049 166.561 312.35 162.478 312.929 158.645C313.745 153.244 321.756 154.362 322.7 148.981C323.387 145.064 325.799 138.509 325.142 134.587C324.485 130.665 321.329 135.414 324.653 133.148C320.996 134.88 313.172 123.032 309.343 121.705C305.514 120.378 302.267 117.504 300.526 113.901C296.465 119.684 292.892 118.113 291.438 124.992C289.983 131.87 291.328 147.497 297.317 151.337C294.92 152.943 293.01 155.24 291.885 157.868C291.248 159.356 290.835 160.985 289.777 162.221C287.758 164.582 284.029 164.725 281.056 163.732C277.371 162.502 274.219 159.798 272.482 156.377C270.744 152.955 270.441 148.856 271.658 145.224Z" fill="#2F2E41"/>
<path d="M0 475.9C0 476.401 0.410148 476.804 0.920892 476.804H405.079C405.59 476.804 406 476.401 406 475.9C406 475.398 405.59 474.995 405.079 474.995H0.920892C0.410148 474.995 0 475.398 0 475.9Z" fill="#3F3D56"/>
<path d="M263.128 0.759766H103.977C85.9294 0.759766 71.2988 15.1302 71.2988 32.857V443.618C71.2988 461.345 85.9294 475.715 103.977 475.715H263.128C281.176 475.715 295.806 461.345 295.806 443.618V32.857C295.806 15.1302 281.176 0.759766 263.128 0.759766Z" fill="white"/>
<path d="M263.128 476.475H103.978C85.5321 476.475 70.5254 461.735 70.5254 443.618V32.8573C70.5254 14.7399 85.5321 0 103.978 0H263.128C281.574 0 296.58 14.7399 296.58 32.8573V443.618C296.58 461.735 281.574 476.475 263.128 476.475ZM103.978 1.52012C86.3853 1.52012 72.073 15.5779 72.073 32.8573V443.618C72.073 460.897 86.3853 474.955 103.978 474.955H263.128C280.721 474.955 295.033 460.897 295.033 443.618V32.8573C295.033 15.5779 280.721 1.52012 263.128 1.52012H103.978Z" fill="#3F3D56"/>
<path d="M58.1467 71.876C56.7495 71.876 55.6133 72.992 55.6133 74.3643V94.2714C55.6133 95.6437 56.7495 96.7597 58.1467 96.7597C59.5439 96.7597 60.6801 95.6437 60.6801 94.2714V74.3643C60.6801 72.992 59.5439 71.876 58.1467 71.876Z" fill="#3F3D56"/>
<path d="M274.656 66.4761H210.686C207.973 66.4761 205.766 64.3079 205.766 61.6428C205.766 58.9778 207.973 56.8096 210.686 56.8096H274.656C277.37 56.8096 279.577 58.9778 279.577 61.6428C279.577 64.3079 277.37 66.4761 274.656 66.4761Z" fill="#E6E6E6"/>
<path d="M214.642 104.484H152.46C150.893 104.484 149.617 103.231 149.617 101.692C149.617 100.152 150.893 98.8994 152.46 98.8994H214.642C216.21 98.8994 217.485 100.152 217.485 101.692C217.485 103.231 216.21 104.484 214.642 104.484Z" fill="#6C63FF"/>
<path d="M60.6068 118.266C88.3426 118.266 110.827 96.6467 110.827 69.9781C110.827 43.3096 88.3426 21.6904 60.6068 21.6904C32.871 21.6904 10.3867 43.3096 10.3867 69.9781C10.3867 96.6467 32.871 118.266 60.6068 118.266Z" fill="#6C63FF"/>
<path d="M77.6515 45.6222C70.9656 57.58 64.2797 69.5378 57.5938 81.4956C53.3327 74.1006 49.0948 66.6925 44.8232 59.3033C43.3479 56.7513 39.3352 59.0467 40.8142 61.605C45.7659 70.1708 50.6664 78.765 55.6181 87.3308C56.4648 88.7954 58.7892 88.8294 59.6272 87.3308C66.9716 74.1952 74.316 61.0595 81.6605 47.9239C83.0996 45.35 79.0917 43.0463 77.6515 45.6222Z" fill="white"/>
<path d="M126.755 11.1406H91.2537C91.1211 11.1406 91.0137 11.2462 91.0137 11.3764V15.4358C91.0137 15.566 91.1211 15.6716 91.2537 15.6716H126.755C126.887 15.6716 126.995 15.566 126.995 15.4358V11.3764C126.995 11.2462 126.887 11.1406 126.755 11.1406Z" fill="#E6E6E6"/>
<path d="M246.335 15.6714C248.373 15.6714 250.025 14.0485 250.025 12.0466C250.025 10.0447 248.373 8.42188 246.335 8.42188C244.297 8.42188 242.645 10.0447 242.645 12.0466C242.645 14.0485 244.297 15.6714 246.335 15.6714Z" fill="#E6E6E6"/>
<path d="M256.483 15.6714C258.521 15.6714 260.174 14.0485 260.174 12.0466C260.174 10.0447 258.521 8.42188 256.483 8.42188C254.445 8.42188 252.793 10.0447 252.793 12.0466C252.793 14.0485 254.445 15.6714 256.483 15.6714Z" fill="#E6E6E6"/>
<path d="M266.632 15.6714C268.67 15.6714 270.322 14.0485 270.322 12.0466C270.322 10.0447 268.67 8.42188 266.632 8.42188C264.594 8.42188 262.941 10.0447 262.941 12.0466C262.941 14.0485 264.594 15.6714 266.632 15.6714Z" fill="#E6E6E6"/>
<path d="M103.59 119.433C103.59 119.934 104 120.337 104.511 120.337H262.594C263.105 120.337 263.515 119.934 263.515 119.433C263.515 118.931 263.105 118.528 262.594 118.528H104.511C104 118.528 103.59 118.931 103.59 119.433Z" fill="#3F3D56"/>
<path d="M247.433 190.521H152.564C150.996 190.521 149.721 189.268 149.721 187.729C149.721 186.189 150.996 184.937 152.564 184.937H247.433C249 184.937 250.275 186.189 250.275 187.729C250.275 189.268 249 190.521 247.433 190.521Z" fill="#6C63FF"/>
<path d="M247.433 230.804H152.564C150.996 230.804 149.721 229.552 149.721 228.012C149.721 226.472 150.996 225.22 152.564 225.22H247.433C249 225.22 250.275 226.472 250.275 228.012C250.275 229.552 249 230.804 247.433 230.804Z" fill="#6C63FF"/>
<path d="M247.433 271.088H152.564C150.996 271.088 149.721 269.835 149.721 268.295C149.721 266.755 150.996 265.503 152.564 265.503H247.433C249 265.503 250.275 266.755 250.275 268.295C250.275 269.835 249 271.088 247.433 271.088Z" fill="#6C63FF"/>
<path d="M123.791 194.224C127.637 194.224 130.755 191.161 130.755 187.383C130.755 183.606 127.637 180.543 123.791 180.543C119.944 180.543 116.826 183.606 116.826 187.383C116.826 191.161 119.944 194.224 123.791 194.224Z" fill="#6C63FF"/>
<path d="M123.018 198.784V197.264C128.778 197.264 133.464 192.661 133.464 187.004C133.464 181.346 128.778 176.743 123.018 176.743V175.223C129.631 175.223 135.012 180.507 135.012 187.004C135.012 193.5 129.631 198.784 123.018 198.784Z" fill="#3F3D56"/>
<path d="M123.791 234.507C127.637 234.507 130.755 231.445 130.755 227.667C130.755 223.889 127.637 220.826 123.791 220.826C119.944 220.826 116.826 223.889 116.826 227.667C116.826 231.445 119.944 234.507 123.791 234.507Z" fill="#6C63FF"/>
<path d="M123.018 239.068V237.548C128.778 237.548 133.464 232.945 133.464 227.287C133.464 221.629 128.778 217.026 123.018 217.026V215.506C129.631 215.506 135.012 220.791 135.012 227.287C135.012 233.783 129.631 239.068 123.018 239.068Z" fill="#3F3D56"/>
<path d="M123.791 274.79C127.637 274.79 130.755 271.728 130.755 267.95C130.755 264.172 127.637 261.109 123.791 261.109C119.944 261.109 116.826 264.172 116.826 267.95C116.826 271.728 119.944 274.79 123.791 274.79Z" fill="#6C63FF"/>
<path d="M123.018 279.351V277.831C128.778 277.831 133.464 273.228 133.464 267.57C133.464 261.912 128.778 257.309 123.018 257.309V255.789C129.631 255.789 135.012 261.074 135.012 267.57C135.012 274.066 129.631 279.351 123.018 279.351Z" fill="#3F3D56"/>
<path d="M297.155 154.862C301.452 153.792 306.323 158.299 308.036 164.932C308.758 167.573 308.825 170.344 308.232 173.016L310.079 180.556L310.214 180.549L324.776 214.256C328.162 222.094 327.804 231.091 323.486 238.473C320.917 242.865 317.545 245.817 313.585 242.803C307.014 237.803 302.723 209.171 300.763 192.724L296.233 176.006C294.414 173.935 293.127 171.467 292.479 168.807C290.765 162.176 292.859 155.933 297.155 154.862Z" fill="#A0616A"/>
<path d="M313.698 173.334L297.406 184.709L305.552 235.096L315.769 248.074L327.669 244.031L331.149 220.212L327.054 197.177L313.698 173.334Z" fill="#6C63FF"/>
</g>
<defs>
<clipPath id="clip0_244_1547">
<rect width="406" height="477" fill="white"/>
</clipPath>
</defs>
</svg>
