<svg width="650" height="560" viewBox="0 0 650 560" fill="none" xmlns="http://www.w3.org/2000/svg">
<path d="M270.381 486.32L277.48 463.199C268.938 453.798 258.231 446.625 246.287 442.301C257.956 461.633 246.649 486.851 251.361 508.935C252.883 515.812 255.933 522.257 260.285 527.795C264.638 533.332 270.18 537.819 276.502 540.923L287.275 554.271C292.923 544.404 296.365 533.429 297.363 522.104C298.361 510.778 296.891 499.371 293.056 488.668C290.845 482.685 287.89 477.004 284.259 471.759C277.857 479.285 270.381 486.32 270.381 486.32Z" fill="#F2F2F2"/>
<path d="M231.343 489.274L227.386 465.414C215.548 460.809 202.765 459.164 190.146 460.62C209.212 472.719 210.339 500.334 224.405 517.998C228.835 523.474 234.439 527.883 240.804 530.898C247.169 533.913 254.131 535.457 261.174 535.416L276.769 542.559C277.424 531.208 275.609 519.851 271.452 509.269C267.294 498.687 260.892 489.132 252.686 481.263C248.038 476.894 242.859 473.127 237.271 470.052C234.898 479.644 231.343 489.274 231.343 489.274Z" fill="#F2F2F2"/>
<path d="M463.699 548.338L452.763 548.337L447.561 506.158L463.7 506.159L463.699 548.338Z" fill="#FFB6B6"/>
<path d="M466.486 558.937L431.227 558.936V558.49C431.227 554.85 432.673 551.36 435.247 548.786C437.82 546.212 441.311 544.766 444.951 544.766H444.952L451.392 539.88L463.409 544.767L466.487 544.767L466.486 558.937Z" fill="#2F2E41"/>
<path d="M640.345 508.451L632.889 516.45L598.486 491.498L609.491 479.692L640.345 508.451Z" fill="#FFB6B6"/>
<path d="M650 513.638L625.958 539.432L625.632 539.127C622.97 536.646 621.402 533.208 621.274 529.57C621.146 525.933 622.468 522.393 624.95 519.731L625.767 511.687L637.535 506.228L639.634 503.977L650 513.638Z" fill="#2F2E41"/>
<path d="M624.164 484.746L612.606 508.92L541.63 461.926L531.304 447.858L497.448 401.729L483.686 423.566L474.11 446.394C470.989 448.43 468.36 451.133 466.411 454.309C464.462 457.484 463.243 461.053 462.841 464.758L462.403 468.799L468.454 523.196L445.455 530.258L432.246 457.183L436.564 441.348L441.01 419.121L463.391 348.882H523.285L557.638 422.003L560.149 436.903L569.889 448.081L624.164 484.746Z" fill="#857A7A"/>
<path d="M499.692 233.965L509.775 241.642L521.934 245.379C521.934 245.379 526.961 316.087 531.49 320.617C536.02 325.146 531.935 325.268 532.845 331.152C533.755 337.036 535.967 349.097 535.967 349.097C505.393 365.281 479.036 365.715 457.864 346.777C457.593 345.606 457.731 344.377 458.254 343.294C458.777 342.212 459.655 341.341 460.741 340.825C464.682 338.734 457.109 328.976 460.329 327.344C463.549 325.712 459.02 311.558 459.02 311.558L461.991 282.026L459.644 277.305L465.372 248.42L475.313 244.79L479.283 235.223L499.692 233.965Z" fill="#6934CD"/>
<path d="M506.009 359.638C505.964 358.361 506.2 357.089 506.699 355.913C507.198 354.737 507.949 353.685 508.899 352.83C509.849 351.976 510.975 351.34 512.197 350.968C513.42 350.595 514.709 350.496 515.974 350.675L530.183 323.057L538.1 337.122L523.393 361.193C522.95 363.298 521.75 365.168 520.021 366.447C518.291 367.727 516.153 368.328 514.01 368.136C511.868 367.945 509.87 366.974 508.395 365.407C506.92 363.841 506.072 361.788 506.009 359.638Z" fill="#FFB6B6"/>
<path d="M529.938 352.882L560.415 305.646L560.314 305.429C560.199 305.18 553.298 290.275 546.611 276.622C545.581 274.52 544.556 272.447 543.562 270.462C543.133 269.606 542.71 268.767 542.294 267.946C539.485 262.409 537.032 257.832 535.567 255.658C532.327 250.743 527.503 247.084 521.897 245.288L521.756 245.252L521.621 245.308C518.879 246.465 516.612 248.522 515.196 251.14C513.78 253.758 513.298 256.781 513.83 259.709C516.474 273.835 522.364 287.153 531.037 298.612L535.977 305.124L518.807 342.453L529.938 352.882Z" fill="#6934CD"/>
<path d="M425.137 171.82C425.976 172.783 426.594 173.919 426.947 175.147C427.299 176.375 427.379 177.666 427.179 178.928C426.979 180.19 426.504 181.393 425.789 182.452C425.074 183.511 424.136 184.4 423.04 185.057L429.393 215.46L414.386 209.518L410.654 181.558C409.672 179.644 409.427 177.436 409.964 175.353C410.502 173.27 411.785 171.456 413.57 170.256C415.355 169.056 417.519 168.552 419.651 168.84C421.782 169.128 423.735 170.189 425.137 171.82Z" fill="#FFB6B6"/>
<path d="M410.803 192.137L416.871 248.022L417.086 248.128C417.263 248.215 424.952 251.986 434.389 256.477C435.981 257.235 435.753 260.517 437.417 261.301C438.563 261.841 441.59 259.881 442.748 260.422C453.064 265.246 463.495 269.937 467.652 271.208C473.264 272.986 479.315 272.791 484.801 270.656L484.934 270.595L485.003 270.467C486.405 267.841 486.87 264.816 486.321 261.891C485.773 258.965 484.244 256.314 481.987 254.374C471.038 245.065 458.076 238.428 444.123 234.988L436.184 233.04L426.016 193.229L410.803 192.137Z" fill="#6934CD"/>
<path d="M488.943 230.799C499.958 230.799 508.886 221.87 508.886 210.855C508.886 199.841 499.958 190.912 488.943 190.912C477.929 190.912 469 199.841 469 210.855C469 221.87 477.929 230.799 488.943 230.799Z" fill="#FFB6B6"/>
<path d="M469.143 197.491C470.783 192.72 478.947 189.411 492.183 188.95C505.419 188.49 508.776 204.088 508.776 204.088C517.612 211.256 499.341 230.445 498.457 229.754L498.854 226.149C499.513 220.177 502.309 215.517 498.753 209.294L495.338 209.333C490.927 210.181 486.517 211.029 482.106 211.877L487.328 207.28L487.18 207.052C484.959 208.209 482.542 208.943 480.053 209.216C477.246 209.381 474.178 208.264 472.834 205.795C472.475 205.116 472.256 204.373 472.189 203.608C468.404 205.12 466.674 209.785 466.674 209.785C466.674 209.785 467.503 202.263 469.143 197.491Z" fill="#2F2E41"/>
<path d="M80.351 198.688C80.0805 198.345 79.7891 198.019 79.4785 197.711C79.5544 197.607 79.6303 197.493 79.7062 197.389L80.351 198.688Z" fill="#2F2E41"/>
<path d="M84.2297 278.898C80.9674 284.693 74.4523 287.927 67.9941 289.51C60.74 291.41 53.1013 291.263 45.9262 289.084C45.0158 288.79 44.1053 288.448 43.2234 288.069C43.6474 286.943 43.9835 285.785 44.2287 284.607C44.5588 283.013 44.724 281.389 44.7218 279.761C44.0032 281.164 43.0723 282.446 41.9621 283.564C41.1057 284.464 40.1329 285.245 39.0697 285.888C35.7717 283.886 32.9161 281.234 30.6769 278.092C30.8191 277.741 30.9614 277.391 31.0941 277.04C31.7828 275.207 32.3281 273.324 32.7253 271.406C33.2641 268.814 33.5342 266.173 33.5314 263.526C32.3621 265.807 30.8456 267.893 29.0362 269.709C28.4937 270.289 27.9174 270.837 27.3103 271.35C26.37 268.494 26.0065 265.48 26.241 262.483C26.4754 259.486 27.303 256.565 28.6758 253.891C32.4313 246.949 39.7145 242.823 46.2012 238.338C52.6973 233.852 59.1935 227.783 59.7435 219.902C60.1134 214.582 57.6477 209.252 58.6339 204.017C59.0488 201.81 60.0614 199.758 61.5616 198.087C63.0618 196.415 64.9919 195.187 67.1418 194.537C69.2917 193.886 71.5789 193.838 73.7542 194.398C75.9295 194.958 77.9095 196.104 79.4785 197.711C75.7989 202.927 72.1383 208.323 70.6494 214.525C69.1321 220.841 70.3744 228.247 75.3532 232.43C77.0602 233.871 79.1561 234.895 80.4743 236.697C82.2287 239.087 82.2382 242.273 82.5227 245.213C83.0917 250.932 84.9599 256.432 85.9652 262.094C86.9799 267.746 87.0368 273.882 84.2297 278.898Z" fill="#2F2E41"/>
<path d="M17.3535 514.072L26.0089 520.759L55.9218 490.557L43.1472 480.688L17.3535 514.072Z" fill="#A0616A"/>
<path d="M17.7225 507.538L32.0353 517.293L27.5058 523.155L33.5719 542.19C33.8716 543.13 33.863 544.141 33.5473 545.076C33.2316 546.011 32.6253 546.82 31.817 547.386C31.0086 547.952 30.0406 548.244 29.0542 548.221C28.0678 548.198 27.1146 547.86 26.3338 547.256L10.0453 534.67L11.718 526.703L6.14144 531.654L0 526.908L17.7225 507.538Z" fill="#2F2E41"/>
<path d="M61.2656 215.536C61.2644 218.918 62.0933 222.248 63.6795 225.235C65.2658 228.221 67.561 230.773 70.3635 232.665C73.1661 234.558 76.3903 235.733 79.7532 236.089C83.1162 236.444 86.515 235.969 89.6512 234.704C92.7875 233.439 95.5653 231.424 97.7409 228.835C99.9165 226.246 101.423 223.163 102.129 219.856C102.835 216.548 102.718 213.119 101.789 209.867C100.859 206.616 99.1462 203.642 96.7994 201.207L96.7003 201.108C96.535 200.934 96.3697 200.761 96.1961 200.596L96.193 200.595L96.1903 200.593L96.1885 200.59L96.1879 200.587C95.9731 200.389 95.7582 200.191 95.535 200.001C91.8991 196.811 86.7887 193.349 81.5743 193.349C70.1621 193.349 61.2656 204.124 61.2656 215.536Z" fill="#2F2E41"/>
<path d="M179.019 204.928C179.118 206.029 178.974 207.14 178.597 208.18C178.221 209.22 177.621 210.165 176.84 210.948C176.058 211.732 175.115 212.334 174.075 212.713C173.036 213.092 171.926 213.239 170.824 213.143L119.667 259.333L110.863 245.428L163.918 204.397C164.202 202.557 165.151 200.884 166.586 199.697C168.022 198.509 169.842 197.89 171.704 197.955C173.565 198.02 175.338 198.766 176.686 200.051C178.035 201.336 178.865 203.071 179.019 204.928Z" fill="#A0616A"/>
<path d="M97.8032 273.274C97.8032 273.274 99.7066 276.789 106.208 271.361C111.414 267.015 136.351 248.149 141.724 240.418C142.951 240.904 144.304 240.968 145.571 240.6C146.839 240.232 147.947 239.453 148.723 238.386L134.003 225.494C129.599 226.001 129.693 228.96 130.152 230.64L119.048 235.67L90.375 253.995L96.3822 270.757L97.8032 273.274Z" fill="#6C63FF"/>
<path d="M70.0257 305.662L68.9534 310.769L68.043 329.603L108.127 331.806L106.882 302.838L102.997 296.454L70.0257 305.662Z" fill="#A0616A"/>
<path d="M87.015 237.64C96.5826 237.64 104.339 229.884 104.339 220.317C104.339 210.749 96.5826 202.993 87.015 202.993C77.4475 202.993 69.6914 210.749 69.6914 220.317C69.6914 229.884 77.4475 237.64 87.015 237.64Z" fill="#A0616A"/>
<path d="M56.2589 284.213L56.1523 269.813C56.1499 264.632 57.9033 259.603 61.1265 255.546C64.3497 251.489 68.8525 248.644 73.9003 247.476L73.9657 247.46L77.3912 242.845L91.3085 244.237L93.8594 249.45L103.944 255.455L107.827 267.937C109.511 269.059 110.946 270.516 112.044 272.217C113.141 273.918 113.877 275.826 114.205 277.823C115.524 286.243 109.628 294.668 108.927 295.634L107.12 305.81L67.8127 312.746L67.4935 312.786L56.2589 284.213Z" fill="#6C63FF"/>
<path d="M108.213 217.227C106.192 218.507 104.095 219.663 101.934 220.689C99.7413 221.742 97.4473 222.572 95.0875 223.164C94.4123 221.683 93.586 220.275 92.6218 218.963C92.8699 220.517 92.8763 222.101 92.6407 223.657C88.7292 224.288 84.723 223.96 80.9666 222.699L77.7044 217.227L77.4578 223.335C74.755 223.828 72.0617 224.293 69.359 224.776C69.1978 224.795 69.0366 224.833 68.8848 224.862C67.2062 217.294 69.5866 208.958 74.8783 203.913C77.5057 201.434 80.7831 199.753 84.329 199.064C87.8749 198.376 91.5433 198.709 94.9073 200.025C95.3341 200.195 95.7703 200.385 96.1875 200.584L96.1882 200.588L96.1902 200.591L96.1934 200.593L96.197 200.594C96.4436 200.717 96.6522 201.011 96.9273 200.982C108.763 199.664 109.142 208.844 108.213 217.227Z" fill="#2F2E41"/>
<path d="M79.3945 491.735L88.0632 498.404L117.916 468.142L105.122 458.299L79.3945 491.735Z" fill="#A0616A"/>
<path d="M80.5349 485.805L94.8673 495.531L90.3497 501.402L96.4542 520.424C96.7559 521.364 96.7493 522.375 96.4354 523.31C96.1216 524.246 95.517 525.056 94.7098 525.624C93.9026 526.191 92.9352 526.486 91.9487 526.465C90.9622 526.443 90.0084 526.107 89.2264 525.506L72.9125 512.952L74.5691 504.981L69.0026 509.944L62.8516 505.211L80.5349 485.805Z" fill="#2F2E41"/>
<path d="M51.2646 454.8L51.2642 454.687L55.3726 447.607L51.1774 438.391L51.0515 414.714L51.7316 411.16C52.6463 406.379 52.3801 401.448 50.9563 396.793L50.8797 382.381C50.7323 378.77 56.3254 375.595 55.0211 372.585C42.6927 344.135 67.6104 322.431 67.7787 322.257L68.2879 321.728L71.0507 323.82L73.6803 323.823L109.166 330.289L109.422 330.767C110.818 333.385 113.511 342.409 113.671 346.492C115.44 348.539 135.585 371.85 137.376 373.47C149.477 384.419 156.405 402.542 159.458 412.371C160.216 414.8 160.369 417.377 159.903 419.879C159.438 422.38 158.367 424.73 156.785 426.723L110.973 476.903L98.6448 465.523L123.433 420.352L121.646 415.769C118.439 415.177 115.536 413.491 113.433 410.998L108.414 405.04C107.024 403.395 106.141 401.382 105.871 399.245L102.827 398.879L91.9237 387.431L84.3588 455.938L82.3022 461.35L46.486 503.456L31.3125 493.973L51.2646 454.8Z" fill="#2F2E41"/>
<path d="M45.7946 160.639C45.1065 161.506 44.6167 162.512 44.3597 163.588C44.1027 164.664 44.0848 165.784 44.3072 166.867C44.5295 167.951 44.9868 168.973 45.6468 169.861C46.3068 170.749 47.1534 171.481 48.1271 172.006L36.7383 205.723L46.0379 241.453L61.0335 234.674L51.78 207.723L58.7031 168.495C59.4771 166.801 59.6028 164.881 59.0563 163.101C58.5098 161.32 57.3291 159.802 55.738 158.834C54.1469 157.865 52.2558 157.514 50.4232 157.847C48.5906 158.18 46.9437 159.173 45.7946 160.639Z" fill="#A0616A"/>
<path d="M59.5208 270.894C59.5208 270.894 55.9988 272.785 53.5493 264.677C51.5883 258.186 38.243 222.942 38.0025 213.531C36.7105 213.263 35.5443 212.573 34.6878 211.569C33.8312 210.565 33.333 209.305 33.2715 207.987L52.654 205.305C56.0552 208.148 54.3505 210.569 53.0443 211.72L59.6458 222.902L73.4441 253.09L62.091 269.572L59.5208 270.894Z" fill="#6C63FF"/>
<path d="M69.3555 224.775C71.3459 218.772 74.915 213.416 79.6885 209.268C84.4619 205.12 90.2636 202.332 96.4852 201.199C96.5099 201.19 96.5926 201.157 96.7 201.108C96.7661 201.067 96.8488 201.025 96.9314 200.984C96.6835 200.843 96.4438 200.72 96.1959 200.595L96.1927 200.595L96.19 200.593L96.1882 200.59L96.1877 200.587C95.9728 200.389 95.758 200.191 95.5348 200L94.9068 200.025C94.9068 200.025 72.8345 196.53 69.3555 224.775Z" fill="#FD6584"/>
<path d="M354.168 417.82C356.577 414.199 355.151 409.016 350.983 406.243C346.815 403.471 341.484 404.158 339.075 407.779C336.666 411.4 338.092 416.583 342.259 419.356C346.427 422.129 351.759 421.441 354.168 417.82Z" fill="#F2F2F2"/>
<path d="M305.267 282.677C307.676 279.056 306.25 273.873 302.083 271.1C297.915 268.327 292.583 269.014 290.174 272.635C287.765 276.256 289.191 281.439 293.359 284.212C297.527 286.985 302.858 286.298 305.267 282.677Z" fill="#F2F2F2"/>
<path d="M509.76 490.727C512.168 487.106 510.743 481.923 506.575 479.15C502.407 476.377 497.075 477.064 494.667 480.685C492.258 484.306 493.683 489.489 497.851 492.262C502.019 495.035 507.351 494.347 509.76 490.727Z" fill="#F2F2F2"/>
<path d="M96.3298 55.9571C98.7387 52.3362 97.3129 47.1531 93.1451 44.3802C88.9773 41.6074 83.6457 42.2948 81.2368 45.9156C78.8278 49.5364 80.2537 54.7195 84.4215 57.4924C88.5893 60.2653 93.9208 59.5779 96.3298 55.9571Z" fill="#F2F2F2"/>
<path d="M289.263 13.2802C291.672 9.65942 290.247 4.47632 286.079 1.70345C281.911 -1.06942 276.579 -0.382026 274.17 3.2388C271.761 6.85963 273.187 12.0428 277.355 14.8156C281.523 17.5885 286.854 16.9011 289.263 13.2802Z" fill="#F2F2F2"/>
<path d="M197.953 371.333C200.362 367.712 198.936 362.529 194.768 359.756C190.6 356.983 185.269 357.671 182.86 361.292C180.451 364.912 181.877 370.096 186.045 372.868C190.212 375.641 195.544 374.954 197.953 371.333Z" fill="#E6E6E6"/>
<path d="M595.935 559.789H17.7587C17.4784 559.788 17.21 559.676 17.0121 559.478C16.8142 559.28 16.7031 559.011 16.7031 558.731C16.7031 558.45 16.8142 558.181 17.0121 557.983C17.21 557.785 17.4784 557.673 17.7587 557.672H595.935C596.215 557.672 596.485 557.783 596.683 557.982C596.882 558.18 596.993 558.45 596.993 558.731C596.993 559.011 596.882 559.281 596.683 559.479C596.485 559.678 596.215 559.789 595.935 559.789Z" fill="#CCCCCC"/>
<path d="M125.37 208.193C120.506 208.179 115.819 206.373 112.203 203.121C108.587 199.868 106.297 195.397 105.77 190.562L94.4824 85.7311C93.9278 80.5262 95.4605 75.3138 98.7443 71.2376C102.028 67.1614 106.795 64.5542 111.998 63.9881L447.148 27.9014C452.353 27.3466 457.565 28.8792 461.642 32.1628C465.718 35.4465 468.326 40.2131 468.892 45.4169L480.179 150.247C480.734 155.452 479.201 160.665 475.917 164.741C472.633 168.818 467.867 171.425 462.663 171.991L127.513 208.078C126.801 208.155 126.086 208.193 125.37 208.193Z" fill="#49238F"/>
<path d="M443.457 32.7676C442.827 32.7678 442.198 32.8017 441.572 32.8692L118.506 67.6548C116.247 67.898 114.058 68.5838 112.064 69.673C110.07 70.7622 108.31 72.2334 106.885 74.0027C105.459 75.7721 104.396 77.8048 103.757 79.9849C103.117 82.165 102.913 84.4498 103.156 86.7088L108.863 139.712C109.786 148.281 112.387 156.584 116.518 164.147C120.65 171.711 126.23 178.386 132.942 183.793C139.653 189.199 147.364 193.231 155.633 195.658C163.902 198.085 172.569 198.859 181.138 197.936L408.307 173.476C416.849 172.556 425.127 169.963 432.668 165.844C440.208 161.725 446.863 156.161 452.253 149.47C457.643 142.779 461.663 135.092 464.082 126.848C466.502 118.604 467.273 109.964 466.354 101.421L460.625 48.2187C460.169 43.981 458.164 40.0608 454.996 37.2096C451.828 34.3584 447.719 32.7767 443.457 32.7676Z" fill="white"/>
<path d="M378.02 112.044L197.455 131.486C196.413 131.599 195.369 131.292 194.553 130.635C193.736 129.977 193.215 129.023 193.103 127.981C192.991 126.939 193.297 125.895 193.954 125.079C194.612 124.263 195.567 123.741 196.608 123.629L377.174 104.187C378.216 104.075 379.26 104.381 380.076 105.038C380.892 105.696 381.414 106.651 381.526 107.692C381.638 108.734 381.332 109.778 380.674 110.594C380.017 111.411 379.062 111.932 378.02 112.044Z" fill="#6C63FF"/>
<path d="M221.094 153.335L200.052 155.601C199.01 155.713 197.966 155.406 197.15 154.749C196.334 154.091 195.813 153.137 195.7 152.095C195.588 151.053 195.895 150.009 196.552 149.193C197.209 148.377 198.164 147.855 199.206 147.743L220.248 145.477C220.765 145.421 221.287 145.467 221.786 145.613C222.284 145.759 222.749 146.001 223.154 146.327C223.558 146.652 223.895 147.054 224.144 147.51C224.393 147.966 224.55 148.466 224.605 148.982C224.661 149.499 224.614 150.021 224.468 150.519C224.321 151.018 224.078 151.482 223.752 151.886C223.426 152.291 223.024 152.627 222.568 152.875C222.111 153.124 221.611 153.28 221.094 153.335Z" fill="#6C63FF"/>
<path d="M118.265 90.1543C122.193 90.1543 125.378 86.9698 125.378 83.0415C125.378 79.1132 122.193 75.9287 118.265 75.9287C114.337 75.9287 111.152 79.1132 111.152 83.0415C111.152 86.9698 114.337 90.1543 118.265 90.1543Z" fill="#3F3D56"/>
<path d="M436.564 54.5908C440.492 54.5908 443.677 51.4063 443.677 47.478C443.677 43.5497 440.492 40.3652 436.564 40.3652C432.636 40.3652 429.451 43.5497 429.451 47.478C429.451 51.4063 432.636 54.5908 436.564 54.5908Z" fill="#3F3D56"/>
<path d="M340.402 200.613C339.749 200.039 339.231 199.327 338.887 198.528C338.543 197.729 338.382 196.863 338.414 195.994C338.772 185.662 337.07 175.363 333.409 165.696C333.098 164.883 332.973 164.012 333.042 163.145C333.11 162.277 333.371 161.436 333.806 160.683C334.222 159.958 334.792 159.334 335.475 158.853C336.158 158.372 336.939 158.047 337.761 157.9C346.028 152.911 354.504 151.51 362.956 153.738C364.319 153.537 365.709 153.829 366.877 154.561C368.044 155.293 368.912 156.416 369.325 157.731C372.747 168.841 374.651 180.363 374.984 191.983C375.016 193.378 374.544 194.736 373.654 195.81C372.765 196.884 371.518 197.601 370.142 197.829L345.129 201.962C344.29 202.102 343.431 202.054 342.614 201.821C341.796 201.587 341.041 201.175 340.402 200.613Z" fill="#6C63FF"/>
<path d="M342.622 170.512L363.675 167.034C363.848 167.006 364.014 166.944 364.163 166.851C364.312 166.759 364.442 166.638 364.544 166.495C364.646 166.353 364.72 166.192 364.76 166.021C364.799 165.85 364.805 165.673 364.777 165.5C364.748 165.327 364.686 165.161 364.593 165.012C364.5 164.864 364.379 164.734 364.236 164.632C364.094 164.53 363.932 164.458 363.761 164.418C363.59 164.379 363.413 164.373 363.24 164.402L342.187 167.88C341.839 167.939 341.528 168.133 341.323 168.42C341.118 168.707 341.034 169.065 341.092 169.413C341.15 169.761 341.343 170.073 341.63 170.279C341.917 170.485 342.274 170.569 342.622 170.512Z" fill="white"/>
<path d="M344.363 181.039L365.416 177.561C365.765 177.503 366.076 177.309 366.282 177.022C366.488 176.734 366.572 176.376 366.514 176.027C366.456 175.678 366.263 175.367 365.975 175.161C365.687 174.955 365.33 174.871 364.981 174.929L343.928 178.407C343.755 178.435 343.589 178.497 343.44 178.59C343.291 178.682 343.161 178.803 343.059 178.945C342.957 179.088 342.883 179.249 342.844 179.42C342.804 179.591 342.798 179.768 342.826 179.941C342.855 180.114 342.917 180.28 343.01 180.428C343.103 180.577 343.224 180.706 343.367 180.808C343.509 180.91 343.671 180.983 343.842 181.023C344.013 181.062 344.19 181.068 344.363 181.039Z" fill="white"/>
<path d="M346.102 191.565L367.155 188.087C367.504 188.029 367.816 187.835 368.022 187.548C368.228 187.26 368.311 186.903 368.253 186.554C368.196 186.205 368.002 185.893 367.714 185.687C367.427 185.481 367.069 185.398 366.72 185.455L345.667 188.933C345.494 188.962 345.329 189.024 345.18 189.117C345.031 189.209 344.902 189.33 344.8 189.473C344.698 189.615 344.625 189.776 344.586 189.947C344.546 190.117 344.54 190.294 344.569 190.467C344.597 190.639 344.659 190.805 344.752 190.954C344.844 191.102 344.965 191.231 345.108 191.333C345.25 191.435 345.411 191.508 345.582 191.548C345.752 191.588 345.929 191.594 346.102 191.565Z" fill="white"/>
<path d="M253.073 95.181L249.042 111.242L246.353 112.756L241.481 102.215L239.137 112.283L236.448 113.797L228.497 97.6192L226.092 96.5448L226.504 95.4155L233.283 94.7031L233.373 95.5623L231.79 97.0319L238.173 110.237L240.547 100.214L238.833 96.533L236.501 95.4749L236.913 94.3456L244.193 93.5805L244.284 94.4397L242.28 96.2672L248.1 109.169L251.482 95.4207L247.17 94.3535L247.606 93.2217L254.934 92.4516L255.022 93.287L253.073 95.181ZM264.57 110.431C263.901 110.646 263.081 110.805 262.11 110.907C261.044 111.019 260.053 110.849 259.137 110.399C258.235 109.93 257.488 109.253 256.896 108.366C256.32 107.477 255.972 106.46 255.851 105.314C255.721 104.073 255.973 102.88 256.609 101.735C257.259 100.573 258.124 99.6134 259.202 98.8565C260.28 98.0837 261.351 97.6412 262.417 97.5292C263.961 97.3669 265.218 97.8462 266.188 98.9669C267.175 100.086 267.766 101.657 267.963 103.679L259.179 104.602C259.424 105.864 259.9 106.867 260.606 107.614C261.31 108.344 262.195 108.653 263.261 108.541C264.311 108.431 265.728 107.526 267.512 105.826L268.331 106.729L264.57 110.431ZM261.285 99.8442C259.646 100.016 258.906 101.237 259.064 103.504L264.434 102.94C264.205 102.144 263.988 101.531 263.782 101.102C263.592 100.672 263.3 100.34 262.906 100.108C262.509 99.8603 261.961 99.7731 261.261 99.8467L261.285 99.8442ZM277.9 109.03L271.073 109.747L270.983 108.888L272.929 106.97L271.419 92.6012L269.139 91.3446L269.049 90.4854L273.082 88.4447L274.108 88.3368L276.103 107.312L278.336 107.898L277.9 109.03ZM286.275 95.0217C286.943 94.9514 287.733 94.9649 288.644 95.0622C289.553 95.1436 290.219 95.2748 290.64 95.4557L291.044 99.2986L290.017 99.4064C289.313 98.6761 288.54 98.1299 287.698 97.768C286.853 97.3901 286.002 97.2464 285.142 97.3367C284.442 97.4103 283.943 97.7846 283.644 98.4595C283.359 99.1169 283.28 100.05 283.407 101.26C283.561 102.724 283.999 103.908 284.722 104.814C285.46 105.717 286.418 106.107 287.596 105.984C288.519 105.887 289.782 105.126 291.386 103.703L292.208 104.63L288.881 107.876C288.211 108.091 287.399 108.249 286.445 108.349C285.379 108.461 284.387 108.292 283.471 107.841C282.569 107.373 281.822 106.695 281.23 105.808C280.654 104.919 280.306 103.902 280.186 102.756C280.055 101.515 280.284 100.325 280.872 99.1852C281.475 98.0279 282.275 97.0749 283.275 96.3264C284.272 95.5619 285.272 95.127 286.275 95.0217ZM301.507 93.4207C302.589 93.307 303.581 93.4843 304.483 93.9526C305.399 94.4033 306.145 95.0729 306.721 95.9616C307.297 96.8503 307.645 97.8674 307.766 99.0131C307.896 100.254 307.636 101.456 306.986 102.618C306.35 103.763 305.494 104.722 304.417 105.495C303.338 106.252 302.265 106.686 301.199 106.798C300.133 106.91 299.142 106.741 298.226 106.29C297.324 105.822 296.577 105.144 295.985 104.257C295.409 103.369 295.061 102.351 294.94 101.206C294.81 99.9645 295.063 98.7716 295.699 97.6269C296.349 96.4646 297.213 95.5049 298.292 94.748C299.369 93.9752 300.441 93.5328 301.507 93.4207ZM300.351 95.7382C298.632 95.9189 297.902 97.2424 298.162 99.7088C298.317 101.189 298.757 102.389 299.481 103.311C300.222 104.23 301.18 104.628 302.358 104.504C303.201 104.416 303.804 104.031 304.167 103.349C304.53 102.667 304.647 101.714 304.518 100.489C304.364 99.0247 303.918 97.8409 303.179 96.9371C302.455 96.0158 301.512 95.6162 300.351 95.7382ZM333.869 103.123L329.143 103.62L328.3 95.6C328.213 94.7725 328.017 94.206 327.711 93.9002C327.421 93.5928 326.95 93.4734 326.298 93.542C325.836 93.5905 325.384 93.7265 324.941 93.95C324.498 94.1736 324 94.5638 323.447 95.1206L324.197 102.257L326.404 102.822L325.992 103.951L321.29 104.445L320.447 96.4253C320.36 95.5979 320.164 95.0313 319.858 94.7256C319.569 94.4182 319.098 94.2988 318.445 94.3673C317.984 94.4158 317.531 94.5519 317.088 94.7754C316.645 94.9989 316.155 95.3883 315.618 95.9434L316.371 103.104L318.554 103.671L318.142 104.8L311.34 105.515L311.249 104.656L313.195 102.738L312.513 96.2457L310.256 95.2039L310.165 94.3447L314.201 91.8693L315.328 94.7915L318.158 91.8637C318.51 91.6979 318.941 91.5882 319.451 91.5347C320.374 91.4377 321.163 91.6041 321.82 92.0338C322.49 92.446 322.959 93.0725 323.224 93.9133L326.011 91.0383C326.363 90.8725 326.794 90.7629 327.303 90.7094C328.401 90.594 329.304 90.837 330.01 91.4384C330.731 92.0222 331.151 92.879 331.27 94.0088L332.05 101.432L334.281 101.994L333.869 103.123ZM344.636 102.016C343.967 102.231 343.147 102.389 342.177 102.491C341.111 102.603 340.119 102.434 339.203 101.983C338.301 101.515 337.555 100.837 336.963 99.9503C336.387 99.0617 336.038 98.0445 335.918 96.8988C335.787 95.6576 336.04 94.4647 336.676 93.32C337.326 92.1577 338.19 91.198 339.269 90.4411C340.346 89.6683 341.418 89.2259 342.484 89.1138C344.028 88.9516 345.285 89.4308 346.255 90.5515C347.241 91.6705 347.833 93.2413 348.029 95.2639L339.246 96.1871C339.491 97.4483 339.966 98.4521 340.672 99.1984C341.376 99.9288 342.262 100.238 343.328 100.126C344.378 100.016 345.795 99.1105 347.579 97.4107L348.398 98.314L344.636 102.016ZM341.352 91.4288C339.713 91.6011 338.972 92.8212 339.13 95.0891L344.501 94.5247C344.272 93.7282 344.055 93.1155 343.849 92.6867C343.659 92.2562 343.367 91.9249 342.972 91.6929C342.576 91.4449 342.028 91.3578 341.328 91.4313L341.352 91.4288Z" fill="#1F0F3D"/>
</svg>
