<svg width="374" height="487" viewBox="0 0 374 487" fill="none" xmlns="http://www.w3.org/2000/svg">
<path d="M34.4193 485.238C34.3637 484.993 28.9793 460.44 39.9755 440.048C50.9716 419.656 74.4437 410.663 74.6796 410.574L75.7523 410.172L76.0058 411.29C76.0614 411.535 81.4457 436.088 70.4496 456.48C59.454 476.872 35.9814 485.865 35.7455 485.954L34.6723 486.356L34.4193 485.238ZM74.2811 412.9C69.5795 414.923 51.0233 423.774 41.7362 440.997C32.4481 458.222 35.2504 478.591 36.1439 483.628C40.8436 481.61 59.3925 472.773 68.6889 455.531C77.9764 438.308 75.1752 417.94 74.2811 412.9Z" fill="#F1F1F1"/>
<path d="M62.0468 449.327C42.2862 461.216 34.6758 484.83 34.6758 484.83C34.6758 484.83 59.1036 489.169 78.8641 477.28C98.6247 465.391 106.235 441.777 106.235 441.777C106.235 441.777 81.8073 437.439 62.0468 449.327Z" fill="#F1F1F1"/>
<path d="M361.295 258.742C361.597 257.187 361.553 255.584 361.168 254.047C360.783 252.511 360.066 251.077 359.067 249.847C358.067 248.618 356.811 247.622 355.385 246.931C353.96 246.239 352.4 245.869 350.816 245.845L341.665 222.833L326.324 224.983L339.703 257.3C339.84 259.964 340.95 262.485 342.822 264.385C344.693 266.286 347.197 267.434 349.859 267.612C352.52 267.79 355.155 266.985 357.262 265.35C359.37 263.715 360.805 261.364 361.295 258.742Z" fill="#9F616A"/>
<path d="M333.033 250.657L328.28 239.322L298.658 182.937L300.269 78.6046L300.578 78.5636C319.532 76.0593 332.356 163.392 332.893 167.111L351.609 231.12L356.064 245.228L333.033 250.657Z" fill="#6C63FF"/>
<path d="M287.518 470.657L301.92 470.656L308.771 415.105L287.515 415.106L287.518 470.657Z" fill="#9F616A"/>
<path d="M283.844 465.956L312.207 465.955H312.208C317.002 465.955 321.599 467.86 324.989 471.249C328.378 474.639 330.283 479.236 330.283 484.03V484.617L283.845 484.619L283.844 465.956Z" fill="#2F2E41"/>
<path d="M155.095 448.715L166.912 456.949L204.294 415.291L186.854 403.138L155.095 448.715Z" fill="#9F616A"/>
<path d="M154.769 442.757L178.04 458.972L178.041 458.973C181.973 461.714 184.656 465.905 185.499 470.624C186.342 475.343 185.276 480.204 182.536 484.137L182.2 484.618L144.1 458.069L154.769 442.757Z" fill="#2F2E41"/>
<path d="M279.603 457.601L278.98 353.391L269.918 287.865L253.023 345.489L252.991 345.536L191.766 434.421L167.942 422.351L168.073 422.041C169.529 418.578 203.835 337.247 213.056 337.247C213.861 337.303 214.668 337.163 215.407 336.839C216.146 336.514 216.796 336.014 217.299 335.383C220.005 331.769 217.801 324.1 217.778 324.023C215.139 313.077 221.776 309.349 223.098 308.727L226.653 235.33L227.022 235.355L323.411 242.117L319.368 333.882L310.669 454.114L310.37 454.148L279.603 457.601Z" fill="#2F2E41"/>
<path d="M324.884 258.38L324.467 258.346L220.803 249.99L221.059 215.69L226.132 126.132L226.161 126.07L246.824 81.2112L261.471 74.5787L282.842 73.4541L282.894 73.4671L302.396 78.299L322.684 223.938L324.884 258.38Z" fill="#6C63FF"/>
<path d="M286.19 61.9576C299.417 54.7273 304.278 38.1436 297.047 24.9169C289.817 11.6902 273.233 6.82926 260.007 14.0596C246.78 21.29 241.919 37.8737 249.149 51.1003C256.38 64.327 272.963 69.188 286.19 61.9576Z" fill="#9F616A"/>
<path d="M245.65 44.8599V34.2256C245.65 34.2256 237.074 24.1253 246.507 21.581C246.507 21.581 249.08 -3.86188 271.377 8.01145C271.377 8.01145 302.251 2.92288 298.821 20.7329C298.821 20.7329 306.539 16.0833 303.966 27.9566L298.99 47.0825C298.99 47.0825 301.393 34.4485 293.675 32.7522L289.387 30.2079C289.387 30.2079 277.381 42.0813 259.371 27.6637C259.371 27.6637 251.653 25.8215 252.51 33.4543C253.368 41.0872 245.65 44.8599 245.65 44.8599Z" fill="#2F2E41"/>
<path d="M270.257 232.766C270.274 231.181 269.944 229.612 269.289 228.17C268.634 226.727 267.671 225.445 266.468 224.415C265.264 223.385 263.849 222.631 262.323 222.206C260.796 221.782 259.195 221.697 257.633 221.959L244.501 200.962L229.795 205.83L248.756 235.221C249.369 237.817 250.913 240.098 253.095 241.632C255.278 243.166 257.947 243.846 260.597 243.543C263.247 243.241 265.695 241.976 267.475 239.99C269.255 238.003 270.245 235.433 270.257 232.766Z" fill="#9F616A"/>
<path d="M236.34 226.147L212.582 177.912L212.603 177.795C212.699 177.261 222.262 124.161 229.576 104.644C236.937 85.0022 247.012 81.0587 247.437 80.9004L247.65 80.8213L256.683 89.4865L244.169 173.014L257.658 213.297L236.34 226.147Z" fill="#6C63FF"/>
<path d="M373 486.316H-8C-8.26522 486.316 -8.51957 486.211 -8.70711 486.023C-8.89464 485.836 -9 485.582 -9 485.316C-9 485.051 -8.89464 484.797 -8.70711 484.609C-8.51957 484.422 -8.26522 484.316 -8 484.316H373C373.265 484.316 373.52 484.422 373.707 484.609C373.895 484.797 374 485.051 374 485.316C374 485.582 373.895 485.836 373.707 486.023C373.52 486.211 373.265 486.316 373 486.316Z" fill="#CBCBCB"/>
</svg>
