<svg width="90" height="90" viewBox="0 0 90 90" fill="none" xmlns="http://www.w3.org/2000/svg">
<circle cx="45" cy="45" r="45" fill="white"/>
<path d="M62.5 43.3903V45.0003C62.4978 48.774 61.2759 52.4459 59.0163 55.4684C56.7568 58.491 53.5807 60.7021 49.9619 61.7721C46.343 62.8421 42.4752 62.7136 38.9353 61.4058C35.3954 60.098 32.3731 57.6809 30.3192 54.5151C28.2652 51.3493 27.2896 47.6044 27.5379 43.8388C27.7862 40.0732 29.2451 36.4888 31.697 33.6201C34.1489 30.7514 37.4624 28.7522 41.1433 27.9205C44.8243 27.0888 48.6755 27.4693 52.1225 29.0053M62.5 31.0003L45 48.5178L39.75 43.2678" stroke="#101828" stroke-width="2" stroke-linecap="round" stroke-linejoin="round"/>
</svg>
