<svg width="90" height="90" viewBox="0 0 90 90" fill="none" xmlns="http://www.w3.org/2000/svg">
<circle cx="45" cy="45" r="45" fill="white"/>
<path d="M57.9767 60.3254C57.2583 60.326 56.5525 60.1372 55.9303 59.7781C55.3081 59.4189 54.7917 58.9021 54.4329 58.2797L41.4593 35.8097C40.9265 34.8712 40.7864 33.7601 41.0694 32.7187C41.3524 31.6773 42.0357 30.79 42.9702 30.2502C43.9047 29.7105 45.0148 29.5621 46.0582 29.8374C47.1017 30.1128 47.9941 30.7894 48.5407 31.7199L61.5143 54.1899C61.8728 54.8113 62.0615 55.5161 62.0616 56.2334C62.0617 56.9508 61.8731 57.6556 61.5148 58.2771C61.1565 58.8985 60.6411 59.4149 60.0202 59.7742C59.3994 60.1336 58.6949 60.3234 57.9776 60.3246L57.9767 60.3254ZM42.9556 60.3246H32.0268C30.9423 60.3246 29.9021 59.8937 29.1352 59.1268C28.3683 58.3599 27.9375 57.3198 27.9375 56.2352C27.9375 55.1507 28.3683 54.1106 29.1352 53.3437C29.9021 52.5768 30.9423 52.1459 32.0268 52.1459H42.9556C44.04 52.1459 45.08 52.5767 45.8468 53.3435C46.6136 54.1104 47.0444 55.1504 47.0444 56.2348C47.0444 57.3192 46.6136 58.3593 45.8468 59.1261C45.08 59.8929 44.04 60.3246 42.9556 60.3246Z" stroke="black" stroke-miterlimit="10"/>
<path d="M32.0234 60.3259C31.3059 60.3249 30.6014 60.1353 29.9804 59.776C29.3594 59.4166 28.8439 58.9003 28.4855 58.2788C28.1271 57.6573 27.9384 56.9525 27.9385 56.235C27.9385 55.5176 28.1273 54.8128 28.4858 54.1913L41.4594 31.7213C41.7241 31.2491 42.0799 30.8342 42.5062 30.5006C42.9326 30.167 43.4209 29.9213 43.9429 29.7779C44.4649 29.6345 45.0102 29.5962 45.5471 29.6652C46.084 29.7341 46.6019 29.909 47.0707 30.1797C47.5395 30.4504 47.9499 30.8115 48.278 31.242C48.6062 31.6726 48.8456 32.164 48.9823 32.6878C49.1191 33.2115 49.1505 33.7573 49.0747 34.2933C48.9989 34.8293 48.8174 35.3449 48.5408 35.8102L35.568 58.2802C35.2091 58.9028 34.6923 59.4198 34.0698 59.7789C33.4473 60.1381 32.7412 60.3268 32.0225 60.3259H32.0234Z" stroke="black" stroke-miterlimit="10"/>
</svg>
