<svg width="19" height="18" viewBox="0 0 19 18" fill="none" xmlns="http://www.w3.org/2000/svg">
<g clip-path="url(#clip0_345_2647)">
<path d="M9.21094 3.00017H3.96094C3.56311 3.00017 3.18158 3.15821 2.90028 3.43951C2.61897 3.72081 2.46094 4.10235 2.46094 4.50017V15.0002C2.46094 15.398 2.61897 15.7795 2.90028 16.0608C3.18158 16.3421 3.56311 16.5002 3.96094 16.5002H14.4609C14.8588 16.5002 15.2403 16.3421 15.5216 16.0608C15.8029 15.7795 15.9609 15.398 15.9609 15.0002V9.75017M14.8359 1.87517C15.1343 1.5768 15.539 1.40918 15.9609 1.40918C16.3829 1.40918 16.7876 1.5768 17.0859 1.87517C17.3843 2.17354 17.5519 2.57821 17.5519 3.00017C17.5519 3.42213 17.3843 3.8268 17.0859 4.12517L9.96094 11.2502L6.96094 12.0002L7.71094 9.00017L14.8359 1.87517Z" stroke="#7B61FF" stroke-width="2" stroke-linecap="round" stroke-linejoin="round"/>
</g>
<defs>
<clipPath id="clip0_345_2647">
<rect width="18" height="18" fill="white" transform="translate(0.960938)"/>
</clipPath>
</defs>
</svg>
