<svg width="734" height="734" viewBox="0 0 734 734" fill="none" xmlns="http://www.w3.org/2000/svg">
<path d="M33.6667 33.6665L700.333 700.333" stroke="black" stroke-width="66.6667" stroke-linecap="round" stroke-linejoin="round"/>
<path d="M190.759 191.087C89.1597 260.175 33.6667 367 33.6667 367C33.6667 367 154.879 600.333 367 600.333C435.343 600.333 494.247 576.113 542.703 543.28M333.667 135.607C344.513 134.338 355.627 133.667 367 133.667C579.12 133.667 700.333 367 700.333 367C700.333 367 677.273 411.39 633.667 461.45" stroke="black" stroke-width="66.6667" stroke-linecap="round" stroke-linejoin="round"/>
<path d="M433.667 441.54C415.973 457.373 392.613 467.003 367 467.003C311.77 467.003 267 422.233 267 367.003C267 339.547 278.064 314.677 295.977 296.606" stroke="black" stroke-width="66.6667" stroke-linecap="round" stroke-linejoin="round"/>
</svg>
