<svg width="90" height="90" viewBox="0 0 90 90" fill="none" xmlns="http://www.w3.org/2000/svg">
<circle cx="45" cy="45" r="45" fill="white"/>
<mask id="path-2-inside-1_916_4724" fill="white">
<path d="M45 31.875C46.7354 31.875 48.3687 32.1826 49.9 32.7979C51.4312 33.4131 52.7656 34.2607 53.9031 35.3408C55.0406 36.4209 55.9375 37.6719 56.5938 39.0938C57.25 40.5156 57.5854 42.0469 57.6 43.6875C57.6 44.5488 57.5417 45.3555 57.425 46.1074C57.3083 46.8594 57.126 47.5771 56.8781 48.2607C56.6302 48.9443 56.3094 49.6211 55.9156 50.291C55.5219 50.9609 55.0552 51.6445 54.5156 52.3418C54.0927 52.8887 53.7208 53.3809 53.4 53.8184C53.0792 54.2559 52.8167 54.6934 52.6125 55.1309C52.4083 55.5684 52.2552 56.0469 52.1531 56.5664C52.051 57.0859 52 57.6943 52 58.3916V62.0625C52 62.6094 51.8906 63.1221 51.6719 63.6006C51.4531 64.0791 51.1542 64.4961 50.775 64.8516C50.3958 65.207 49.951 65.4873 49.4406 65.6924C48.9302 65.8975 48.3833 66 47.8 66H42.2C41.6167 66 41.0698 65.8975 40.5594 65.6924C40.049 65.4873 39.6042 65.207 39.225 64.8516C38.8458 64.4961 38.5469 64.0791 38.3281 63.6006C38.1094 63.1221 38 62.6094 38 62.0625V58.3711C38 57.6738 37.949 57.0723 37.8469 56.5664C37.7448 56.0605 37.5917 55.5889 37.3875 55.1514C37.1833 54.7139 36.9208 54.2695 36.6 53.8184C36.2792 53.3672 35.9073 52.875 35.4844 52.3418C34.9448 51.6445 34.4854 50.9678 34.1062 50.3115C33.7271 49.6553 33.4063 48.9785 33.1438 48.2812C32.8813 47.584 32.6917 46.8594 32.575 46.1074C32.4583 45.3555 32.4 44.5488 32.4 43.6875C32.4 42.0605 32.7281 40.5293 33.3844 39.0938C34.0406 37.6582 34.9448 36.4072 36.0969 35.3408C37.249 34.2744 38.5833 33.4336 40.1 32.8184C41.6167 32.2031 43.25 31.8887 45 31.875ZM49.2 62.0625V60.75H40.8V62.0625C40.8 62.418 40.9385 62.7256 41.2156 62.9854C41.4927 63.2451 41.8208 63.375 42.2 63.375H47.8C48.1792 63.375 48.5073 63.2451 48.7844 62.9854C49.0615 62.7256 49.2 62.418 49.2 62.0625ZM54.8 43.6875C54.8 42.416 54.5448 41.2266 54.0344 40.1191C53.524 39.0117 52.824 38.0342 51.9344 37.1865C51.0448 36.3389 50.0094 35.6826 48.8281 35.2178C47.6469 34.7529 46.3708 34.5137 45 34.5C43.6438 34.5 42.375 34.7393 41.1938 35.2178C40.0125 35.6963 38.9698 36.3525 38.0656 37.1865C37.1615 38.0205 36.4615 38.9912 35.9656 40.0986C35.4698 41.2061 35.2146 42.4023 35.2 43.6875C35.2 44.9043 35.3313 45.9502 35.5938 46.8252C35.8562 47.7002 36.199 48.4795 36.6219 49.1631C37.0448 49.8467 37.4896 50.4893 37.9563 51.0908C38.4229 51.6924 38.8677 52.3213 39.2906 52.9775C39.7135 53.6338 40.0635 54.3721 40.3406 55.1924C40.6177 56.0127 40.7708 56.9902 40.8 58.125H49.2C49.2146 56.9902 49.3604 56.0195 49.6375 55.2129C49.9146 54.4062 50.2646 53.668 50.6875 52.998C51.1104 52.3281 51.5552 51.6992 52.0219 51.1113C52.4885 50.5234 52.9333 49.8809 53.3562 49.1836C53.7792 48.4863 54.1219 47.7002 54.3844 46.8252C54.6469 45.9502 54.7854 44.9043 54.8 43.6875ZM45 29.25C44.6208 29.25 44.2927 29.1201 44.0156 28.8604C43.7385 28.6006 43.6 28.293 43.6 27.9375V25.3125C43.6 24.957 43.7385 24.6494 44.0156 24.3896C44.2927 24.1299 44.6208 24 45 24C45.3792 24 45.7073 24.1299 45.9844 24.3896C46.2615 24.6494 46.4 24.957 46.4 25.3125V27.9375C46.4 28.293 46.2615 28.6006 45.9844 28.8604C45.7073 29.1201 45.3792 29.25 45 29.25ZM28.2 43.0312H25.4C25.0208 43.0312 24.6927 42.9014 24.4156 42.6416C24.1385 42.3818 24 42.0742 24 41.7188C24 41.3633 24.1385 41.0557 24.4156 40.7959C24.6927 40.5361 25.0208 40.4062 25.4 40.4062H28.2C28.5792 40.4062 28.9073 40.5361 29.1844 40.7959C29.4615 41.0557 29.6 41.3633 29.6 41.7188C29.6 42.0742 29.4615 42.3818 29.1844 42.6416C28.9073 42.9014 28.5792 43.0312 28.2 43.0312ZM29.3594 48.3838C29.7385 48.3838 30.0667 48.5137 30.3438 48.7734C30.6208 49.0332 30.7594 49.3477 30.7594 49.7168C30.7594 49.9902 30.6792 50.2295 30.5187 50.4346C30.3583 50.6396 30.1396 50.8037 29.8625 50.9268C29.7021 50.9951 29.4833 51.084 29.2062 51.1934C28.9292 51.3027 28.6302 51.4189 28.3094 51.542C27.9885 51.665 27.6969 51.7676 27.4344 51.8496C27.1719 51.9316 26.9385 51.9795 26.7344 51.9932C26.3552 51.9932 26.0271 51.8633 25.75 51.6035C25.4729 51.3438 25.3344 51.0293 25.3344 50.6602C25.3344 50.3867 25.4146 50.1475 25.575 49.9424C25.7354 49.7373 25.9542 49.5732 26.2313 49.4502C26.3917 49.3955 26.6104 49.3066 26.8875 49.1836C27.1646 49.0605 27.4635 48.9443 27.7844 48.835C28.1052 48.7256 28.3969 48.623 28.6594 48.5273C28.9219 48.4316 29.1552 48.3838 29.3594 48.3838ZM32.6844 35.1562C32.6844 35.5117 32.5458 35.8193 32.2688 36.0791C31.9917 36.3389 31.6635 36.4688 31.2844 36.4688C31.0219 36.4688 30.7812 36.4072 30.5625 36.2842L28.1781 34.9102C27.974 34.7871 27.8135 34.6299 27.6969 34.4385C27.5802 34.2471 27.5146 34.0283 27.5 33.7822C27.5 33.4268 27.6385 33.1191 27.9156 32.8594C28.1927 32.5996 28.5208 32.4697 28.9 32.4697C29.1333 32.4697 29.374 32.5381 29.6219 32.6748L32.0281 34.0283C32.2323 34.1377 32.3927 34.2949 32.5094 34.5C32.626 34.7051 32.6844 34.9238 32.6844 35.1562ZM34.5 27.6094C34.5 27.2539 34.6385 26.9463 34.9156 26.6865C35.1927 26.4268 35.5208 26.2969 35.9 26.2969C36.1479 26.2969 36.3812 26.3584 36.6 26.4814C36.8187 26.6045 36.9938 26.7686 37.125 26.9736L38.4812 29.2705C38.5979 29.4619 38.6562 29.667 38.6562 29.8857C38.6562 30.2549 38.5177 30.5693 38.2406 30.8291C37.9635 31.0889 37.6354 31.2188 37.2562 31.2188C37.0083 31.2188 36.775 31.1572 36.5562 31.0342C36.3375 30.9111 36.1625 30.7471 36.0312 30.542L34.675 28.2451C34.5583 28.0537 34.5 27.8418 34.5 27.6094ZM64.6 40.4062C64.9792 40.4062 65.3073 40.5361 65.5844 40.7959C65.8615 41.0557 66 41.3633 66 41.7188C66 42.0742 65.8615 42.3818 65.5844 42.6416C65.3073 42.9014 64.9792 43.0312 64.6 43.0312H61.8C61.4208 43.0312 61.0927 42.9014 60.8156 42.6416C60.5385 42.3818 60.4 42.0742 60.4 41.7188C60.4 41.3633 60.5385 41.0557 60.8156 40.7959C61.0927 40.5361 61.4208 40.4062 61.8 40.4062H64.6ZM64.6437 50.6807C64.6437 51.0361 64.5052 51.3438 64.2281 51.6035C63.951 51.8633 63.6229 51.9932 63.2437 51.9932C63.0833 51.9932 62.8646 51.9521 62.5875 51.8701C62.3104 51.7881 62.0115 51.6787 61.6906 51.542C61.3698 51.4053 61.0781 51.2891 60.8156 51.1934C60.5531 51.0977 60.3271 51.002 60.1375 50.9062C59.875 50.7969 59.6635 50.6328 59.5031 50.4141C59.3427 50.1953 59.2552 49.9492 59.2406 49.6758C59.2406 49.3066 59.3792 48.999 59.6562 48.7529C59.9333 48.5068 60.2687 48.377 60.6625 48.3633C60.8375 48.3633 61.0635 48.4111 61.3406 48.5068C61.6177 48.6025 61.9094 48.7119 62.2156 48.835C62.5219 48.958 62.8135 49.0811 63.0906 49.2041C63.3677 49.3271 63.5937 49.416 63.7687 49.4707C64.0312 49.5801 64.2427 49.7373 64.4031 49.9424C64.5635 50.1475 64.6437 50.3936 64.6437 50.6807ZM58.7156 36.4688C58.3365 36.4688 58.0083 36.3389 57.7313 36.0791C57.4542 35.8193 57.3156 35.5117 57.3156 35.1562C57.3156 34.9238 57.374 34.7051 57.4906 34.5C57.6073 34.2949 57.7677 34.1377 57.9719 34.0283L60.3781 32.6748C60.626 32.5381 60.8667 32.4697 61.1 32.4697C61.4792 32.4697 61.8073 32.5996 62.0844 32.8594C62.3615 33.1191 62.5 33.4268 62.5 33.7822C62.5 34.0146 62.4417 34.2266 62.325 34.418C62.2083 34.6094 62.0406 34.7734 61.8219 34.9102L59.4375 36.2842C59.2188 36.4072 58.9781 36.4688 58.7156 36.4688ZM51.3438 29.8857C51.3438 29.667 51.4021 29.4619 51.5187 29.2705L52.875 26.9736C52.9917 26.7686 53.1594 26.6045 53.3781 26.4814C53.5969 26.3584 53.8375 26.2969 54.1 26.2969C54.4792 26.2969 54.8073 26.4268 55.0844 26.6865C55.3615 26.9463 55.5 27.2539 55.5 27.6094C55.5 27.8418 55.4417 28.0537 55.325 28.2451L53.9688 30.542C53.8521 30.7471 53.6844 30.9111 53.4656 31.0342C53.2469 31.1572 53.0062 31.2188 52.7437 31.2188C52.3646 31.2188 52.0365 31.0889 51.7594 30.8291C51.4823 30.5693 51.3438 30.2549 51.3438 29.8857Z"/>
</mask>
<path d="M45 31.875C46.7354 31.875 48.3687 32.1826 49.9 32.7979C51.4312 33.4131 52.7656 34.2607 53.9031 35.3408C55.0406 36.4209 55.9375 37.6719 56.5938 39.0938C57.25 40.5156 57.5854 42.0469 57.6 43.6875C57.6 44.5488 57.5417 45.3555 57.425 46.1074C57.3083 46.8594 57.126 47.5771 56.8781 48.2607C56.6302 48.9443 56.3094 49.6211 55.9156 50.291C55.5219 50.9609 55.0552 51.6445 54.5156 52.3418C54.0927 52.8887 53.7208 53.3809 53.4 53.8184C53.0792 54.2559 52.8167 54.6934 52.6125 55.1309C52.4083 55.5684 52.2552 56.0469 52.1531 56.5664C52.051 57.0859 52 57.6943 52 58.3916V62.0625C52 62.6094 51.8906 63.1221 51.6719 63.6006C51.4531 64.0791 51.1542 64.4961 50.775 64.8516C50.3958 65.207 49.951 65.4873 49.4406 65.6924C48.9302 65.8975 48.3833 66 47.8 66H42.2C41.6167 66 41.0698 65.8975 40.5594 65.6924C40.049 65.4873 39.6042 65.207 39.225 64.8516C38.8458 64.4961 38.5469 64.0791 38.3281 63.6006C38.1094 63.1221 38 62.6094 38 62.0625V58.3711C38 57.6738 37.949 57.0723 37.8469 56.5664C37.7448 56.0605 37.5917 55.5889 37.3875 55.1514C37.1833 54.7139 36.9208 54.2695 36.6 53.8184C36.2792 53.3672 35.9073 52.875 35.4844 52.3418C34.9448 51.6445 34.4854 50.9678 34.1062 50.3115C33.7271 49.6553 33.4063 48.9785 33.1438 48.2812C32.8813 47.584 32.6917 46.8594 32.575 46.1074C32.4583 45.3555 32.4 44.5488 32.4 43.6875C32.4 42.0605 32.7281 40.5293 33.3844 39.0938C34.0406 37.6582 34.9448 36.4072 36.0969 35.3408C37.249 34.2744 38.5833 33.4336 40.1 32.8184C41.6167 32.2031 43.25 31.8887 45 31.875ZM49.2 62.0625V60.75H40.8V62.0625C40.8 62.418 40.9385 62.7256 41.2156 62.9854C41.4927 63.2451 41.8208 63.375 42.2 63.375H47.8C48.1792 63.375 48.5073 63.2451 48.7844 62.9854C49.0615 62.7256 49.2 62.418 49.2 62.0625ZM54.8 43.6875C54.8 42.416 54.5448 41.2266 54.0344 40.1191C53.524 39.0117 52.824 38.0342 51.9344 37.1865C51.0448 36.3389 50.0094 35.6826 48.8281 35.2178C47.6469 34.7529 46.3708 34.5137 45 34.5C43.6438 34.5 42.375 34.7393 41.1938 35.2178C40.0125 35.6963 38.9698 36.3525 38.0656 37.1865C37.1615 38.0205 36.4615 38.9912 35.9656 40.0986C35.4698 41.2061 35.2146 42.4023 35.2 43.6875C35.2 44.9043 35.3313 45.9502 35.5938 46.8252C35.8562 47.7002 36.199 48.4795 36.6219 49.1631C37.0448 49.8467 37.4896 50.4893 37.9563 51.0908C38.4229 51.6924 38.8677 52.3213 39.2906 52.9775C39.7135 53.6338 40.0635 54.3721 40.3406 55.1924C40.6177 56.0127 40.7708 56.9902 40.8 58.125H49.2C49.2146 56.9902 49.3604 56.0195 49.6375 55.2129C49.9146 54.4062 50.2646 53.668 50.6875 52.998C51.1104 52.3281 51.5552 51.6992 52.0219 51.1113C52.4885 50.5234 52.9333 49.8809 53.3562 49.1836C53.7792 48.4863 54.1219 47.7002 54.3844 46.8252C54.6469 45.9502 54.7854 44.9043 54.8 43.6875ZM45 29.25C44.6208 29.25 44.2927 29.1201 44.0156 28.8604C43.7385 28.6006 43.6 28.293 43.6 27.9375V25.3125C43.6 24.957 43.7385 24.6494 44.0156 24.3896C44.2927 24.1299 44.6208 24 45 24C45.3792 24 45.7073 24.1299 45.9844 24.3896C46.2615 24.6494 46.4 24.957 46.4 25.3125V27.9375C46.4 28.293 46.2615 28.6006 45.9844 28.8604C45.7073 29.1201 45.3792 29.25 45 29.25ZM28.2 43.0312H25.4C25.0208 43.0312 24.6927 42.9014 24.4156 42.6416C24.1385 42.3818 24 42.0742 24 41.7188C24 41.3633 24.1385 41.0557 24.4156 40.7959C24.6927 40.5361 25.0208 40.4062 25.4 40.4062H28.2C28.5792 40.4062 28.9073 40.5361 29.1844 40.7959C29.4615 41.0557 29.6 41.3633 29.6 41.7188C29.6 42.0742 29.4615 42.3818 29.1844 42.6416C28.9073 42.9014 28.5792 43.0312 28.2 43.0312ZM29.3594 48.3838C29.7385 48.3838 30.0667 48.5137 30.3438 48.7734C30.6208 49.0332 30.7594 49.3477 30.7594 49.7168C30.7594 49.9902 30.6792 50.2295 30.5187 50.4346C30.3583 50.6396 30.1396 50.8037 29.8625 50.9268C29.7021 50.9951 29.4833 51.084 29.2062 51.1934C28.9292 51.3027 28.6302 51.4189 28.3094 51.542C27.9885 51.665 27.6969 51.7676 27.4344 51.8496C27.1719 51.9316 26.9385 51.9795 26.7344 51.9932C26.3552 51.9932 26.0271 51.8633 25.75 51.6035C25.4729 51.3438 25.3344 51.0293 25.3344 50.6602C25.3344 50.3867 25.4146 50.1475 25.575 49.9424C25.7354 49.7373 25.9542 49.5732 26.2313 49.4502C26.3917 49.3955 26.6104 49.3066 26.8875 49.1836C27.1646 49.0605 27.4635 48.9443 27.7844 48.835C28.1052 48.7256 28.3969 48.623 28.6594 48.5273C28.9219 48.4316 29.1552 48.3838 29.3594 48.3838ZM32.6844 35.1562C32.6844 35.5117 32.5458 35.8193 32.2688 36.0791C31.9917 36.3389 31.6635 36.4688 31.2844 36.4688C31.0219 36.4688 30.7812 36.4072 30.5625 36.2842L28.1781 34.9102C27.974 34.7871 27.8135 34.6299 27.6969 34.4385C27.5802 34.2471 27.5146 34.0283 27.5 33.7822C27.5 33.4268 27.6385 33.1191 27.9156 32.8594C28.1927 32.5996 28.5208 32.4697 28.9 32.4697C29.1333 32.4697 29.374 32.5381 29.6219 32.6748L32.0281 34.0283C32.2323 34.1377 32.3927 34.2949 32.5094 34.5C32.626 34.7051 32.6844 34.9238 32.6844 35.1562ZM34.5 27.6094C34.5 27.2539 34.6385 26.9463 34.9156 26.6865C35.1927 26.4268 35.5208 26.2969 35.9 26.2969C36.1479 26.2969 36.3812 26.3584 36.6 26.4814C36.8187 26.6045 36.9938 26.7686 37.125 26.9736L38.4812 29.2705C38.5979 29.4619 38.6562 29.667 38.6562 29.8857C38.6562 30.2549 38.5177 30.5693 38.2406 30.8291C37.9635 31.0889 37.6354 31.2188 37.2562 31.2188C37.0083 31.2188 36.775 31.1572 36.5562 31.0342C36.3375 30.9111 36.1625 30.7471 36.0312 30.542L34.675 28.2451C34.5583 28.0537 34.5 27.8418 34.5 27.6094ZM64.6 40.4062C64.9792 40.4062 65.3073 40.5361 65.5844 40.7959C65.8615 41.0557 66 41.3633 66 41.7188C66 42.0742 65.8615 42.3818 65.5844 42.6416C65.3073 42.9014 64.9792 43.0312 64.6 43.0312H61.8C61.4208 43.0312 61.0927 42.9014 60.8156 42.6416C60.5385 42.3818 60.4 42.0742 60.4 41.7188C60.4 41.3633 60.5385 41.0557 60.8156 40.7959C61.0927 40.5361 61.4208 40.4062 61.8 40.4062H64.6ZM64.6437 50.6807C64.6437 51.0361 64.5052 51.3438 64.2281 51.6035C63.951 51.8633 63.6229 51.9932 63.2437 51.9932C63.0833 51.9932 62.8646 51.9521 62.5875 51.8701C62.3104 51.7881 62.0115 51.6787 61.6906 51.542C61.3698 51.4053 61.0781 51.2891 60.8156 51.1934C60.5531 51.0977 60.3271 51.002 60.1375 50.9062C59.875 50.7969 59.6635 50.6328 59.5031 50.4141C59.3427 50.1953 59.2552 49.9492 59.2406 49.6758C59.2406 49.3066 59.3792 48.999 59.6562 48.7529C59.9333 48.5068 60.2687 48.377 60.6625 48.3633C60.8375 48.3633 61.0635 48.4111 61.3406 48.5068C61.6177 48.6025 61.9094 48.7119 62.2156 48.835C62.5219 48.958 62.8135 49.0811 63.0906 49.2041C63.3677 49.3271 63.5937 49.416 63.7687 49.4707C64.0312 49.5801 64.2427 49.7373 64.4031 49.9424C64.5635 50.1475 64.6437 50.3936 64.6437 50.6807ZM58.7156 36.4688C58.3365 36.4688 58.0083 36.3389 57.7313 36.0791C57.4542 35.8193 57.3156 35.5117 57.3156 35.1562C57.3156 34.9238 57.374 34.7051 57.4906 34.5C57.6073 34.2949 57.7677 34.1377 57.9719 34.0283L60.3781 32.6748C60.626 32.5381 60.8667 32.4697 61.1 32.4697C61.4792 32.4697 61.8073 32.5996 62.0844 32.8594C62.3615 33.1191 62.5 33.4268 62.5 33.7822C62.5 34.0146 62.4417 34.2266 62.325 34.418C62.2083 34.6094 62.0406 34.7734 61.8219 34.9102L59.4375 36.2842C59.2188 36.4072 58.9781 36.4688 58.7156 36.4688ZM51.3438 29.8857C51.3438 29.667 51.4021 29.4619 51.5187 29.2705L52.875 26.9736C52.9917 26.7686 53.1594 26.6045 53.3781 26.4814C53.5969 26.3584 53.8375 26.2969 54.1 26.2969C54.4792 26.2969 54.8073 26.4268 55.0844 26.6865C55.3615 26.9463 55.5 27.2539 55.5 27.6094C55.5 27.8418 55.4417 28.0537 55.325 28.2451L53.9688 30.542C53.8521 30.7471 53.6844 30.9111 53.4656 31.0342C53.2469 31.1572 53.0062 31.2188 52.7437 31.2188C52.3646 31.2188 52.0365 31.0889 51.7594 30.8291C51.4823 30.5693 51.3438 30.2549 51.3438 29.8857Z" stroke="black" stroke-width="2" mask="url(#path-2-inside-1_916_4724)"/>
</svg>
