<svg width="186" height="186" viewBox="0 0 186 186" fill="none" xmlns="http://www.w3.org/2000/svg">
<circle cx="93" cy="93" r="93" fill="#7F56D9"/>
<path d="M74.1541 22.8667C48.9541 30.0667 28.8207 50.6 22.2874 75.9333C10.4207 121.4 46.2874 167 93.7541 167C133.754 167 166.821 133.933 166.821 93.6667C166.821 60.4667 143.754 30.7333 111.354 22.3333C101.221 19.6667 84.2874 19.9333 74.1541 22.8667ZM112.021 34.8667C151.087 47 167.354 93.6667 144.554 127.933C142.021 131.8 139.487 135 138.954 135C138.421 135 136.154 132.333 133.754 129.133C125.487 117.267 108.154 108.333 93.4874 108.333C78.8207 108.333 61.4874 117.267 53.2207 129.133C50.8207 132.333 48.5541 135 48.0207 135C47.4874 135 44.954 131.8 42.4207 127.933C23.2207 99.1333 31.354 60.2 60.2874 41.5333C74.5541 32.4667 95.4874 29.6667 112.021 34.8667Z" fill="white"/>
<path d="M81.7539 52.4664C69.4872 58.7331 63.7539 73.2664 68.9539 85.3997C73.3539 96.0664 82.2872 102.066 93.4872 102.066C119.354 102.066 129.487 69.3997 108.421 54.4664C100.821 49.1331 90.0206 48.1997 81.7539 52.4664Z" fill="white"/>
</svg>
