<svg width="147" height="147" viewBox="0 0 147 147" fill="none" xmlns="http://www.w3.org/2000/svg">
<path d="M54.1541 2.3774C28.9541 9.5774 8.82072 30.1107 2.28738 55.4441C-9.57928 100.911 26.2874 146.511 73.7541 146.511C113.754 146.511 146.821 113.444 146.821 73.1774C146.821 39.9774 123.754 10.2441 91.3541 1.84407C81.2207 -0.822599 64.2874 -0.555932 54.1541 2.3774ZM92.0207 14.3774C131.087 26.5107 147.354 73.1774 124.554 107.444C122.021 111.311 119.487 114.511 118.954 114.511C118.421 114.511 116.154 111.844 113.754 108.644C105.487 96.7774 88.1541 87.8441 73.4874 87.8441C58.8207 87.8441 41.4874 96.7774 33.2207 108.644C30.8207 111.844 28.5541 114.511 28.0207 114.511C27.4874 114.511 24.954 111.311 22.4207 107.444C3.22072 78.6441 11.354 39.7107 40.2874 21.0441C54.5541 11.9774 75.4874 9.1774 92.0207 14.3774Z" fill="white"/>
<path d="M61.7539 31.9771C49.4872 38.2438 43.7539 52.7771 48.9539 64.9105C53.3539 75.5771 62.2872 81.5771 73.4872 81.5771C99.3539 81.5771 109.487 48.9105 88.4206 33.9771C80.8206 28.6438 70.0206 27.7105 61.7539 31.9771Z" fill="white"/>
</svg>
