<svg width="722" height="468" viewBox="0 0 722 468" fill="none" xmlns="http://www.w3.org/2000/svg">
<path fill-rule="evenodd" clip-rule="evenodd" d="M360.813 350.667C425.247 350.667 477.48 298.433 477.48 234C477.48 169.567 425.247 117.333 360.813 117.333C296.38 117.333 244.146 169.567 244.146 234C244.146 298.433 296.38 350.667 360.813 350.667ZM360.813 283.813C333.303 283.813 311 261.51 311 234C311 206.49 333.303 184.187 360.813 184.187C388.323 184.187 410.627 206.49 410.627 234C410.627 261.51 388.323 283.813 360.813 283.813Z" fill="black"/>
<path fill-rule="evenodd" clip-rule="evenodd" d="M361 0.666504C200.626 0.666504 91.5566 87.6348 33.9766 149.993C-10.4203 198.073 -10.4203 269.926 33.9766 318.006C91.5566 380.366 200.626 467.333 361 467.333C521.373 467.333 630.443 380.366 688.023 318.006C732.42 269.926 732.42 198.073 688.023 149.993C630.443 87.6348 521.373 0.666504 361 0.666504ZM82.956 195.22C133.944 140.001 226.563 67.3332 361 67.3332C495.437 67.3332 588.057 140.001 639.043 195.22C659.857 217.76 659.857 250.24 639.043 272.78C588.057 328 495.437 400.666 361 400.666C226.563 400.666 133.944 328 82.956 272.78C62.142 250.24 62.142 217.76 82.956 195.22Z" fill="black"/>
</svg>
