<svg width="223" height="223" viewBox="0 0 223 223" fill="none" xmlns="http://www.w3.org/2000/svg">
<circle cx="111.5" cy="111.5" r="111.5" fill="#7F56D9"/>
<path d="M149.269 44.9248C147.044 45.9723 133.82 58.4108 119.81 72.6824L94.278 98.4761L91.1356 114.581C87.0767 136.315 86.6839 135.792 108.419 131.864L124.523 128.852L151.626 101.88C174.278 79.36 178.729 74.1227 179.515 70.1947C180.693 64.1718 178.467 59.7202 170.088 51.8642C160.268 42.4371 156.733 41.2587 149.269 44.9248ZM162.886 60.2439C165.898 63.2553 168.386 66.6596 168.386 67.707C168.386 69.8019 163.279 75.5629 161.315 75.5629C159.613 75.5629 147.436 63.6481 147.436 61.946C147.436 59.8511 152.936 54.6138 155.292 54.6138C156.471 54.6138 159.875 57.1015 162.886 60.2439ZM146.127 77.5269L153.328 84.8591L136.307 101.618C119.417 118.247 119.286 118.378 111.037 119.949C106.455 120.865 102.396 121.258 102.003 120.996C101.741 120.604 102.134 116.545 103.05 111.962C104.622 103.844 104.753 103.582 120.988 86.954C130.153 77.7888 137.878 70.3257 138.271 70.3257C138.664 70.3257 142.199 73.599 146.127 77.5269Z" fill="white"/>
<path d="M58.2716 57.2332C52.6415 58.9353 48.3208 62.3395 46.0949 67.0531C44.2619 70.7192 44 78.1823 44 118.378C44 162.895 44.1309 165.514 46.6186 169.573C48.0589 171.93 51.0703 174.941 53.4271 176.381C57.486 178.869 60.1046 179 104.622 179C157.256 179 157.911 178.869 163.41 169.966C166.16 165.645 166.422 163.419 166.814 143.91C167.207 125.056 167.076 122.175 164.981 119.95C162.232 116.938 160.137 116.807 157.387 119.557C155.685 121.259 155.292 125.187 155.292 142.077C155.292 153.337 154.769 163.288 154.245 164.074C151.626 168.133 147.174 168.525 104.229 168.525H60.8902L57.7479 165.252L54.4746 162.11V118.771C54.4746 75.8255 54.8674 71.3738 58.9263 68.7552C59.7119 68.2314 69.6627 67.7077 80.9229 67.7077C97.8131 67.7077 101.741 67.3149 103.443 65.6128C106.193 62.9942 106.062 60.7683 103.181 58.1497C101.086 56.3166 97.6822 55.9238 81.1847 56.0548C70.4483 56.0548 60.1046 56.5785 58.2716 57.2332Z" fill="white"/>
</svg>
